<?xml version="1.0" encoding="UTF-8"?>
<!-- Generator: visioncortex VTracer 0.6.12 -->
<svg version="1.1" xmlns="http://www.w3.org/2000/svg" width="784" height="1168">
<path d="M0 0 C258.72 0 517.44 0 784 0 C784 385.44 784 770.88 784 1168 C525.28 1168 266.56 1168 0 1168 C0 782.56 0 397.12 0 0 Z " fill="#141825" transform="translate(0,0)"/>
<path d="M0 0 C11.813711 -1.01842336 22.34959118 3.61399541 31.53515625 10.84375 C42.7800862 20.6808361 50.11658936 33.5770096 51.28125 48.63671875 C51.66015822 64.25089491 47.37557464 76.58830298 36.609375 88.01953125 C36.08692703 88.57964401 35.56447906 89.13975677 35.02619934 89.71684265 C29.06446466 96.06565628 22.88262541 102.1928482 16.6875 108.3125 C14.43833862 110.53469071 12.19280561 112.76046402 9.94921875 114.98828125 C9.45427414 115.47492752 8.95932953 115.96157379 8.4493866 116.46296692 C5.71394159 119.17963738 3.12610222 121.97438628 0.60668945 124.89331055 C-2.97125649 129.02327806 -6.76961493 132.88070671 -10.65625 136.71875 C-11.00923157 137.06983826 -11.00923157 137.06983826 -12.79553223 138.84655762 C-15.77897375 141.81383766 -18.7684071 144.77505363 -21.75732422 147.73681641 C-23.95490579 149.91618465 -26.14937938 152.09864947 -28.34375 154.28125 C-28.67562317 154.608974 -28.67562317 154.608974 -30.35510254 156.26745605 C-34.18317231 160.07569252 -37.78958627 164.00536741 -41.31726074 168.09240723 C-43.87182448 170.98832072 -46.59285739 173.69822628 -49.34375 176.40625 C-49.63014343 176.69075012 -49.63014343 176.69075012 -51.07946777 178.13049316 C-53.48939282 180.52432686 -55.90534478 182.91204243 -58.32080078 185.30029297 C-69.93601707 196.79631449 -69.93601707 196.79631449 -75.13476562 202.91210938 C-80.19864671 208.58047469 -85.76899594 213.81466838 -91.17529297 219.15478516 C-96.67111864 224.58934905 -102.10102744 230.00777655 -107.11767578 235.89501953 C-111.57140648 240.87557285 -116.43429132 245.49426871 -121.1875 250.1875 C-123.32978843 252.30302177 -125.4686112 254.42196304 -127.60546875 256.54296875 C-128.08783493 257.01703659 -128.57020111 257.49110443 -129.06718445 257.97953796 C-131.94441238 260.83599649 -134.47177544 263.83682892 -137 267 C-138.64454253 268.68850094 -140.31230362 270.3546318 -142 272 C-142.42369873 272.42108032 -142.42369873 272.42108032 -144.56787109 274.55200195 C-145.01428955 274.99523804 -145.01428955 274.99523804 -147.2734375 277.23828125 C-148.78913247 278.7465923 -150.30434063 280.2553905 -151.81933594 281.7644043 C-152.8519611 282.7920057 -153.88548268 283.81870714 -154.91992188 284.84448242 C-160.25347663 290.13472328 -165.48574433 295.44440115 -170.36816406 301.16088867 C-173.88489448 305.1243133 -177.80248918 308.72521281 -181.65820312 312.35546875 C-186.41773273 316.98400213 -190.42114468 321.77240499 -191.34765625 328.5390625 C-190.58221209 334.13833897 -189.00718905 336.99281095 -185 341 C-197.65615216 342.31227384 -208.59386423 337.26630293 -218.30859375 329.453125 C-228.42385408 320.23341022 -235.63875782 308.37753439 -236.3359375 294.484375 C-236.51453759 285.10198237 -236.27042347 276.57510168 -232 268 C-231.65348389 267.30100586 -231.30696777 266.60201172 -230.94995117 265.88183594 C-226.51536443 257.71583663 -220.17744027 251.75748467 -213.5625 245.375 C-211.35120352 243.22048569 -209.14547512 241.06034288 -206.94140625 238.8984375 C-206.67463577 238.63755341 -206.67463577 238.63755341 -205.32461548 237.31732178 C-202.62972345 234.6663915 -200.03495001 231.98419795 -197.58984375 229.1015625 C-191.57110009 222.01884842 -184.70896024 215.65796067 -178.10644531 209.12695312 C-165.94350343 197.08406106 -165.94350343 197.08406106 -160.78515625 191.0078125 C-156.11772277 185.75822649 -150.96927115 180.92276321 -145.97021484 175.99072266 C-144.4675623 174.50640103 -142.96811835 173.01888796 -141.46875 171.53125 C-140.58638672 170.66048828 -139.70402344 169.78972656 -138.79492188 168.89257812 C-136.64507235 166.7183139 -134.63437842 164.45131548 -132.63671875 162.13671875 C-129.04755954 157.99785751 -125.2403967 154.12917975 -121.34375 150.28125 C-120.99076843 149.93016174 -120.99076843 149.93016174 -119.20446777 148.15344238 C-116.22102625 145.18616234 -113.2315929 142.22494637 -110.24267578 139.26318359 C-108.04509421 137.08381535 -105.85062062 134.90135053 -103.65625 132.71875 C-103.32437683 132.391026 -103.32437683 132.391026 -101.64489746 130.73254395 C-97.80810329 126.91562828 -94.19158431 122.97723361 -90.65588379 118.8807373 C-88.24819879 116.14611122 -85.69103463 113.58443667 -83.09375 111.03125 C-82.56535522 110.50664185 -82.03696045 109.98203369 -81.49255371 109.44152832 C-79.27380416 107.23883885 -77.04901227 105.04229163 -74.82470703 102.84521484 C-73.1830727 101.22187975 -71.54461981 99.5953788 -69.90625 97.96875 C-69.4174939 97.48829224 -68.92873779 97.00783447 -68.4251709 96.51281738 C-65.68970756 93.79628139 -63.10270506 90.99976976 -60.58203125 88.08203125 C-57.14623407 84.11634787 -53.51503392 80.40255929 -49.78125 76.71875 C-49.11967896 76.06096558 -48.45810791 75.40318115 -47.77648926 74.72546387 C-44.98421856 71.94933442 -42.18594584 69.17928463 -39.38818359 66.40869141 C-37.32959102 64.3683292 -35.27412097 62.32485669 -33.21875 60.28125 C-32.90875061 59.97539978 -32.90875061 59.97539978 -31.33996582 58.4276123 C-27.58374924 54.69216089 -24.0554289 50.82183994 -20.59292603 46.81332397 C-18.6155628 44.5623719 -16.52529545 42.4604268 -14.37109375 40.37890625 C-13.56349609 39.58806641 -12.75589844 38.79722656 -11.92382812 37.98242188 C-10.26621774 36.36908388 -8.60474964 34.7597 -6.93945312 33.15429688 C6.08270267 20.36114782 6.08270267 20.36114782 6.625 12.3125 C6.25488948 7.01991954 3.67819526 3.67819526 0 0 Z " fill="#2BC8C6" transform="translate(483,351)"/>
<path d="M0 0 C74.25 0 148.5 0 225 0 C222.42069136 2.06344691 219.82265308 4.11712926 217.06640625 5.9375 C213.84440091 8.10465773 210.88221076 10.47896562 207.9375 13 C207.38167236 13.47276367 206.82584473 13.94552734 206.25317383 14.43261719 C201.01840606 18.91935084 195.96586423 23.5946654 190.91796875 28.2890625 C177.23595293 41.00033289 160.86243388 56.13874883 142 60 C142 60.66 142 61.32 142 62 C132.12819499 64.72926374 122.12901352 66.54137197 112 68 C111.42337616 68.08484901 111.42337616 68.08484901 108.50531006 68.51423645 C103.51448433 69.13113227 98.56775384 69.13266091 93.54492188 69.11352539 C92.52938232 69.11367142 91.51384277 69.11381744 90.4675293 69.1139679 C87.1345806 69.11327518 83.80168885 69.10551296 80.46875 69.09765625 C78.1484785 69.09578979 75.82820661 69.09436696 73.50793457 69.09336853 C67.41868999 69.08956131 61.32946948 69.07974642 55.24023438 69.06866455 C47.92466733 69.05660724 40.60909221 69.05203964 33.29351807 69.04621124 C22.195662 69.03653366 11.09785869 69.01736452 0 69 C0 46.23 0 23.46 0 0 Z " fill="#2FD2C3" transform="translate(248,351)"/>
<path d="M0 0 C0.55158783 -0.00007301 0.55158783 -0.00007301 3.34295654 -0.0004425 C6.97353105 0.00025174 10.60405365 0.00802128 14.23461914 0.01586914 C16.75810213 0.01773505 19.28158549 0.01915814 21.80506897 0.02015686 C27.75826829 0.02357923 33.71145108 0.03145325 39.66464192 0.04150635 C48.30288417 0.05577511 56.94113277 0.06098795 65.57938385 0.06731415 C77.66369634 0.0769995 89.74796052 0.09616564 101.83227539 0.11352539 C101.83227539 22.55352539 101.83227539 44.99352539 101.83227539 68.11352539 C27.91227539 68.11352539 -46.00772461 68.11352539 -122.16772461 68.11352539 C-119.79131577 65.73711655 -118.12441944 64.37566505 -115.35522461 62.67602539 C-105.12807923 55.94027264 -96.26760464 47.27081372 -87.41772461 38.86352539 C-57.11739709 10.11352539 -57.11739709 10.11352539 -44.16772461 10.11352539 C-44.16772461 9.45352539 -44.16772461 8.79352539 -44.16772461 8.11352539 C-40.86772461 8.11352539 -37.56772461 8.11352539 -34.16772461 8.11352539 C-33.83772461 7.12352539 -33.50772461 6.13352539 -33.16772461 5.11352539 C-30.76395175 4.24433071 -28.51531826 3.57836166 -26.04272461 2.98852539 C-25.39045898 2.8196582 -24.73819336 2.65079102 -24.06616211 2.47680664 C-15.97480579 0.43791328 -8.32256904 -0.02900912 0 0 Z " fill="#25BECB" transform="translate(431.167724609375,623.886474609375)"/>
<path d="M0 0 C30.69 0 61.38 0 93 0 C93 18 93 18 89.88671875 22.59375 C88.6000163 23.7392093 87.30449046 24.87484009 86 26 C84.92479381 27.35456984 83.88928617 28.74154492 82.89453125 30.15625 C82.39244141 30.86007812 81.89035156 31.56390625 81.37304688 32.2890625 C80.85806641 33.01867187 80.34308594 33.74828125 79.8125 34.5 C75.61043873 40.38774365 71.36255803 46.23011843 67 52 C60.53295788 60.57085575 54.26468379 69.28071093 48 78 C45.7518249 81.12631786 43.50136037 84.25097549 41.25 87.375 C40.7557251 88.06319824 40.2614502 88.75139648 39.75219727 89.46044922 C35.25070147 95.7073928 30.6231119 101.83585079 26 108 C37.22 108.165 37.22 108.165 94 109 C94 115.27 94 121.54 94 128 C62.65 128 31.3 128 -1 128 C-1 108.14215193 -1 108.14215193 6.51513672 100.60595703 C9.55116062 97.32233894 12.07325165 93.62081746 14.6875 90 C15.89905391 88.34324836 17.11130281 86.68700475 18.32421875 85.03125 C18.93313965 84.19722656 19.54206055 83.36320313 20.16943359 82.50390625 C23.10110866 78.49386898 26.0511405 74.49740733 29 70.5 C30.16026765 68.92586335 31.32042357 67.35164435 32.48046875 65.77734375 C33.05716309 64.99472168 33.63385742 64.21209961 34.22802734 63.40576172 C36.04483429 60.93912964 37.86043096 58.47161052 39.67578125 56.00390625 C40.88793293 54.35670614 42.10017138 52.70956989 43.3125 51.0625 C43.89781494 50.267229 44.48312988 49.47195801 45.08618164 48.65258789 C48.96765145 43.38483948 52.88136928 38.14382401 56.83984375 32.93359375 C59.97233352 28.67952537 62.97042552 24.32796354 66 20 C55.11 19.835 55.11 19.835 0 19 C0 12.73 0 6.46 0 0 Z " fill="#F9F9F9" transform="translate(275,809)"/>
<path d="M0 0 C7.26 0 14.52 0 22 0 C25.38290398 9.02107728 25.38290398 9.02107728 26.359375 12.09375 C26.58431641 12.80144531 26.80925781 13.50914062 27.04101562 14.23828125 C27.27498047 14.98464844 27.50894531 15.73101563 27.75 16.5 C28.00458984 17.30824219 28.25917969 18.11648438 28.52148438 18.94921875 C30.91690093 26.61687174 33.15399966 34.32885119 35.37817383 42.04760742 C37.52757356 49.47612943 39.80782956 56.85457226 42.22265625 64.20117188 C43.20996128 67.24717062 44 69.7756725 44 73 C44.66 73 45.32 73 46 73 C46.25136719 71.76378906 46.50273437 70.52757812 46.76171875 69.25390625 C48.07321133 63.359674 49.93495642 57.67173794 51.8125 51.9375 C52.53686937 49.7006539 53.26082855 47.46367492 53.984375 45.2265625 C54.33306641 44.15180664 54.68175781 43.07705078 55.04101562 41.96972656 C56.23961112 38.25798635 57.40567656 34.53747148 58.5625 30.8125 C60.61547838 24.22615299 62.67492276 17.6419232 64.75 11.0625 C65.05623291 10.08321533 65.36246582 9.10393066 65.67797852 8.0949707 C65.96471436 7.18835693 66.2514502 6.28174316 66.546875 5.34765625 C66.80307617 4.53304932 67.05927734 3.71844238 67.32324219 2.87915039 C68 1 68 1 69 0 C70.56172745 -0.08685603 72.12729344 -0.10702219 73.69140625 -0.09765625 C74.63564453 -0.09443359 75.57988281 -0.09121094 76.55273438 -0.08789062 C77.54595703 -0.07951172 78.53917969 -0.07113281 79.5625 -0.0625 C80.55958984 -0.05798828 81.55667969 -0.05347656 82.58398438 -0.04882812 C85.05604849 -0.03700007 87.52799518 -0.02051849 90 0 C87.83817034 8.43897539 85.17411866 16.64962733 82.3125 24.875 C82.09346008 25.50794983 81.87442017 26.14089966 81.64874268 26.79302979 C78.55633819 35.72505501 75.31301425 44.58828896 71.89526367 53.40136719 C69.50205971 59.59836687 67.28358843 65.84273368 65.125 72.125 C62.09524828 80.89438097 59.02902551 89.64945674 55.875 98.375 C55.47941895 99.49793457 55.08383789 100.62086914 54.67626953 101.77783203 C51.56676155 110.30108957 47.9563975 118.43619574 40.4375 123.9375 C39.71433594 124.48277344 38.99117188 125.02804687 38.24609375 125.58984375 C32.82844462 128.9911852 28.37292237 129.31155589 22.125 129.25 C21.34769531 129.25773438 20.57039063 129.26546875 19.76953125 129.2734375 C14.80829977 129.25676109 10.70428617 128.58064015 6 127 C7.50170462 121.01448228 8.94226163 115.38744379 12 110 C12.88042969 110.05800781 13.76085937 110.11601563 14.66796875 110.17578125 C24.17415748 110.54505606 24.17415748 110.54505606 28.125 107.9375 C33.20743055 99.97502546 33.20743055 99.97502546 32.703125 95.17333984 C31.9748065 91.88629685 31.00968373 88.83375643 29.875 85.6640625 C29.76556816 85.35605209 29.76556816 85.35605209 29.21177673 83.79733276 C28.73219953 82.44962013 28.25028924 81.10273596 27.7663269 79.7565918 C26.98366006 77.57954932 26.20706812 75.40042071 25.43188477 73.22070312 C24.27489873 69.96950236 23.1152097 66.71928295 21.95361328 63.46972656 C18.64843681 54.22048313 15.3612787 44.96483791 12.0769043 35.70819092 C10.95395696 32.54633744 9.82770889 29.38567365 8.70117188 26.22509766 C7.99726804 24.2438605 7.29348653 22.26257988 6.58984375 20.28125 C6.27152084 19.39073944 5.95319794 18.50022888 5.62522888 17.58273315 C5.32343216 16.73107574 5.02163544 15.87941833 4.71069336 15.00195312 C4.45154648 14.27399536 4.1923996 13.5460376 3.92539978 12.79602051 C2.52355253 8.56045256 1.28200998 4.27336659 0 0 Z " fill="#FAFAFB" transform="translate(381,841)"/>
<path d="M0 0 C1.78352392 -0.00135784 3.56704756 -0.00313992 5.35057068 -0.00531006 C10.15344092 -0.00983484 14.95628947 -0.00811645 19.75916004 -0.00493097 C24.79417285 -0.00238636 29.82918389 -0.00475031 34.86419678 -0.00631714 C43.30351086 -0.0081307 51.74281616 -0.00575179 60.18212891 -0.00097656 C69.9486515 0.00448569 79.71515328 0.00268597 89.48167539 -0.00280297 C97.87594063 -0.00733208 106.2701996 -0.00798628 114.66446567 -0.0053643 C119.67496759 -0.00380313 124.6854597 -0.00360384 129.695961 -0.00690079 C134.39426724 -0.00977727 139.09254639 -0.00780799 143.79084969 -0.00200653 C145.51910164 -0.00067864 147.24735585 -0.00107354 148.97560692 -0.0032692 C151.3239589 -0.00597902 153.67222258 -0.00260194 156.02056885 0.00241089 C157.33751865 0.00278791 158.65446846 0.00316494 160.01132584 0.00355339 C162.92480469 0.12939453 162.92480469 0.12939453 163.92480469 1.12939453 C163.92480469 23.89939453 163.92480469 46.66939453 163.92480469 70.12939453 C84.39480469 70.12939453 4.86480469 70.12939453 -77.07519531 70.12939453 C-76.41519531 69.79939453 -76.41519531 69.79939453 -73.07519531 68.12939453 C-73.47738281 67.80970703 -73.47738281 67.80970703 -75.51269531 66.19189453 C-78.36551738 62.78242425 -78.84894901 60.95678154 -79.42285156 56.70361328 C-78.1743949 47.45942292 -71.14118984 41.74888618 -64.76269531 35.62939453 C-58.60606187 29.6486649 -52.64410476 23.6610646 -47.07519531 17.12939453 C-44.58663826 14.26394466 -42.04036624 11.46560053 -39.45019531 8.69189453 C-38.82757813 7.97324219 -38.20496094 7.25458984 -37.56347656 6.51416016 C-28.50014259 -3.02666556 -12.3237367 -0.01589905 0 0 Z M26.92480469 7.12939453 C26.92480469 7.78939453 26.92480469 8.44939453 26.92480469 9.12939453 C23.62480469 9.12939453 20.32480469 9.12939453 16.92480469 9.12939453 C16.92480469 9.78939453 16.92480469 10.44939453 16.92480469 11.12939453 C16.23644531 11.22091797 15.54808594 11.31244141 14.83886719 11.40673828 C-0.23090231 15.14387951 -13.58632487 28.32702179 -24.546875 38.69384766 C-27.54320244 41.50828941 -30.61522025 44.23845559 -33.68066406 46.97705078 C-35.32025107 48.4508068 -36.94733741 49.93855619 -38.56347656 51.43798828 C-44.88081942 57.26409141 -51.43829226 62.41858967 -58.86816406 66.76220703 C-59.23232422 66.98779297 -59.23232422 66.98779297 -61.07519531 68.12939453 C-61.07519531 68.45939453 -61.07519531 68.78939453 -61.07519531 69.12939453 C12.84480469 69.12939453 86.76480469 69.12939453 162.92480469 69.12939453 C162.92480469 46.68939453 162.92480469 24.24939453 162.92480469 1.12939453 C135.32548733 1.0090681 135.32548733 1.0090681 123.48925781 0.98291016 C115.43784541 0.96503179 107.38653528 0.94442338 99.33520508 0.90307617 C92.83830198 0.87029083 86.3415096 0.85250125 79.84453011 0.8447628 C77.37563397 0.83925356 74.90674335 0.82849614 72.43789482 0.81220436 C56.58092869 0.71180201 41.7359945 0.78174176 26.92480469 7.12939453 Z " fill="#1D6171" transform="translate(370.0751953125,622.87060546875)"/>
<path d="M0 0 C29.50434396 -0.0683969 59.00868417 -0.12150788 88.51309072 -0.15319599 C91.99416022 -0.15694823 95.47522956 -0.16083119 98.95629883 -0.16479492 C99.30281668 -0.16518839 99.30281668 -0.16518839 101.056407 -0.16717956 C112.28676116 -0.18024337 123.51706938 -0.20390255 134.74739627 -0.23145839 C146.2656268 -0.25948553 157.78382496 -0.2759459 169.30208892 -0.28226548 C175.7738904 -0.28618503 182.24558759 -0.29543127 188.71735573 -0.31719017 C194.80345686 -0.33748745 200.88941031 -0.34384751 206.97554207 -0.33932304 C209.2141322 -0.34015128 211.45272705 -0.34615694 213.69128799 -0.35761642 C216.73824908 -0.37245469 219.78464622 -0.3689853 222.83161926 -0.36076355 C223.72558074 -0.36950207 224.61954222 -0.3782406 225.54059345 -0.38724393 C225.9476539 -0.38425735 225.9476539 -0.38425735 228.00762653 -0.36914349 C228.71124831 -0.37028265 229.41487008 -0.37142181 230.13981372 -0.37259549 C232.53697363 0.10755587 233.44723234 1.16603784 235 3 C234.34 4.65 233.68 6.3 233 8 C233.99 8 234.98 8 236 8 C236.66 7.01 237.32 6.02 238 5 C238.33 5.66 238.33 5.66 240 9 C240.66 9 241.32 9 242 9 C243.00741889 16.68156902 241.07798236 19.94627106 236.48681641 26.0012207 C232.14123396 31.24143169 227.31852614 35.95574071 222.4375 40.6875 C220.43227839 42.64576694 218.43159772 44.60858956 216.43359375 46.57421875 C215.95215912 47.04697235 215.47072449 47.51972595 214.97470093 48.00680542 C212.34022906 50.61194387 209.82087449 53.26917388 207.41015625 56.08203125 C206.89395218 56.66173172 206.37774811 57.24143219 205.84590149 57.83869934 C204 60 204 60 202.20594788 62.53578186 C198.49884008 67.14977286 195.52873655 70.05195078 189.62580872 70.8785553 C184.19459059 71.28618053 178.77491142 71.12597148 173.3359375 70.9765625 C171.33244371 70.9578857 169.3289039 70.94366316 167.3253479 70.9336853 C162.0798488 70.89570235 156.83716746 70.79765385 151.59277344 70.68664551 C146.23020541 70.58391042 140.86717703 70.53858377 135.50390625 70.48828125 C125.00137352 70.38138679 114.50092204 70.21096563 104 70 C104 69.67 104 69.34 104 69 C104.27356323 68.96241577 104.27356323 68.96241577 105.65795898 68.7722168 C117.82135694 67.09192281 129.92523621 65.23137837 142 63 C142 62.34 142 61.68 142 61 C142.83660156 60.68289063 143.67320312 60.36578125 144.53515625 60.0390625 C163.36089042 52.49209044 178.12341409 39.7445022 192.79296875 26 C198.70768572 20.45889797 204.83488454 15.27997338 211.1875 10.25 C211.78240234 9.77739746 212.37730469 9.30479492 212.99023438 8.81787109 C213.27737305 8.59268799 213.27737305 8.59268799 214.73046875 7.453125 C215.23989014 7.05254883 215.74931152 6.65197266 216.27416992 6.23925781 C218.42680475 4.69352654 220.72754313 3.36347412 223 2 C186.205 1.835 186.205 1.835 0 1 C0 0.67 0 0.34 0 0 Z " fill="#1D6F63" transform="translate(248,350)"/>
<path d="M0 0 C6.93 0 13.86 0 21 0 C21 42.24 21 84.48 21 128 C14.07 128 7.14 128 0 128 C0 85.76 0 43.52 0 0 Z " fill="#F9F9F9" transform="translate(486,809)"/>
<path d="M0 0 C74.25 0 148.5 0 225 0 C221.37421254 2.90062997 217.84192932 5.43871379 214 8 C213.0925 8.7425 212.185 9.485 211.25 10.25 C209 12 209 12 207 12 C207 11.34 207 10.68 207 10 C207.66 10 208.32 10 209 10 C209 9.34 209 8.68 209 8 C210.75 6.7109375 210.75 6.7109375 213 5.375 C213.37125 5.15199219 213.37125 5.15199219 215.25 4.0234375 C215.8275 3.68570312 216.405 3.34796875 217 3 C216.67 2.67 216.34 2.34 216 2 C214.06447614 2.25806985 212.12881101 2.52035235 210.203125 2.84375 C208 3 208 3 205.87917805 2.51965427 C202.15740877 1.84792322 198.49825965 1.84655955 194.73002625 1.84178162 C193.90087654 1.83684364 193.07172684 1.83190566 192.21745139 1.82681805 C189.44143768 1.81147013 186.66544705 1.80308975 183.8894043 1.79467773 C181.89854225 1.78509709 179.90768223 1.77508689 177.91682434 1.76467896 C172.51234707 1.73764409 167.10786109 1.71662682 161.70335364 1.69667697 C156.05521541 1.6748087 150.40710401 1.64742411 144.75898743 1.62062073 C134.0635465 1.57070524 123.36809067 1.52576215 112.67262059 1.48259836 C100.49617686 1.43321623 88.31976006 1.37830171 76.14334238 1.32291877 C51.09558547 1.20911627 26.0478038 1.10300378 1 1 C1 23.11 1 45.22 1 68 C34.99 68 68.98 68 104 68 C104 68.33 104 68.66 104 69 C69.68 69 35.36 69 0 69 C0 46.23 0 23.46 0 0 Z " fill="#42C6C4" transform="translate(248,351)"/>
<path d="M0 0 C7.76751234 -0.51783416 13.75880117 1.25545087 21 4 C21 4.66 21 5.32 21 6 C20.01 6.33 19.02 6.66 18 7 C17.835 6.67 17.835 6.67 17 5 C14.6859378 4.26924352 12.35171131 3.59861742 10 3 C9.40207659 7.18546384 8.94633127 11.14645829 9.0625 15.375 C9 19 9 19 7 21 C6.06858248 22.4279865 5.15381358 23.8668842 4.25 25.3125 C2.30273081 28.30277824 0.53734134 30.6006016 -2.3125 32.75 C-5 35 -5 35 -5.875 37.8125 C-5.91625 38.534375 -5.9575 39.25625 -6 40 C-6.721875 40.04125 -7.44375 40.0825 -8.1875 40.125 C-11.45258099 41.14080297 -12.5232999 42.58684088 -14.55078125 45.25390625 C-16.7759174 47.93486544 -19.42631375 50.0712337 -22.06640625 52.33203125 C-28.67863894 58.03591682 -28.67863894 58.03591682 -30 62 C-31.4396441 63.24332899 -32.88473509 64.4818812 -34.375 65.6640625 C-36 67 -36 67 -38.75 69.75 C-41 72 -41 72 -43 73 C-43.625 75.0625 -43.625 75.0625 -44 77 C-44.66 77 -45.32 77 -46 77 C-46 77.66 -46 78.32 -46 79 C-46.78375 79.226875 -47.5675 79.45375 -48.375 79.6875 C-51 81 -51 81 -52.1875 83.5625 C-52.455625 84.366875 -52.72375 85.17125 -53 86 C-53.33 86.165 -53.33 86.165 -55 87 C-55.99 86.34 -56.98 85.68 -58 85 C-57.06728271 84.07251953 -56.13456543 83.14503906 -55.17358398 82.18945312 C-51.68400607 78.71809851 -48.19783964 75.24333449 -44.71264648 71.76757812 C-43.20933045 70.26926293 -41.70511464 68.77184993 -40.19995117 67.27539062 C-38.0254053 65.11309775 -35.8542129 62.94748387 -33.68359375 60.78125 C-33.01976181 60.12257935 -32.35592987 59.46390869 -31.67198181 58.78527832 C-27.80555822 54.91931093 -24.14931198 50.93401983 -20.57658386 46.79574585 C-18.60519265 44.55031022 -16.51946167 42.45478985 -14.37109375 40.37890625 C-13.56349609 39.58806641 -12.75589844 38.79722656 -11.92382812 37.98242188 C-10.26621774 36.36908388 -8.60474964 34.7597 -6.93945312 33.15429688 C6.08270267 20.36114782 6.08270267 20.36114782 6.625 12.3125 C6.25488948 7.01991954 3.67819526 3.67819526 0 0 Z " fill="#42D6B7" transform="translate(483,351)"/>
<path d="M0 0 C0 1.65 0 3.3 0 5 C-0.66 5 -1.32 5 -2 5 C-2.433125 5.78375 -2.86625 6.5675 -3.3125 7.375 C-5 10 -5 10 -7.4375 10.875 C-11.31474974 12.5772072 -12.13470095 15.2694019 -14 19 C-14.99 19 -15.98 19 -17 19 C-17.144375 19.4846875 -17.144375 19.4846875 -17.875 21.9375 C-19 25 -19 25 -21 26 C-21 26.66 -21 27.32 -21 28 C-21.3609375 28.1134375 -21.3609375 28.1134375 -23.1875 28.6875 C-26.53209313 30.24831013 -28.51603959 32.3031287 -31 35 C-30.34 35.33 -29.68 35.66 -29 36 C-29.33 36.66 -29.66 37.32 -30 38 C-30.495 37.835 -30.495 37.835 -33 37 C-33.103125 37.598125 -33.20625 38.19625 -33.3125 38.8125 C-34.12517365 41.3982798 -34.98937796 42.20480175 -37 44 C-42.95312096 49.50663689 -46.40306385 55.79247079 -47.19213867 63.99804688 C-47.26763478 66.10692165 -47.27743074 68.20247987 -47.25 70.3125 C-47.24395752 71.05870605 -47.23791504 71.80491211 -47.23168945 72.57373047 C-47.08311172 80.87427328 -45.9350642 88.6020793 -42 96 C-41.01 96.33 -40.02 96.66 -39 97 C-38.67 99.31 -38.34 101.62 -38 104 C-45.39463644 97.66174019 -49.26834613 88.3935122 -50.22045898 78.7722168 C-50.72735713 68.72963216 -50.56873903 59.17412571 -46 50 C-45.65348389 49.30100586 -45.30696777 48.60201172 -44.94995117 47.88183594 C-40.51536443 39.71583663 -34.17744027 33.75748467 -27.5625 27.375 C-25.35120352 25.22048568 -23.14548653 23.06033124 -20.94140625 20.8984375 C-20.41520691 20.38392029 -19.88900757 19.86940308 -19.34686279 19.33929443 C-15.84504566 15.89475879 -12.54208192 12.34135654 -9.36206055 8.60009766 C-7.69923162 6.64666859 -5.94277623 4.80939938 -4.125 3 C-3.83753906 2.71125 -3.83753906 2.71125 -2.3828125 1.25 C-1 0 -1 0 0 0 Z " fill="#28AAC5" transform="translate(297,569)"/>
<path d="M0 0 C0.33 0.66 0.66 1.32 1 2 C0.505 2.825 0.505 2.825 -2 7 C27.205 7.165 27.205 7.165 175 8 C175 8.33 175 8.66 175 9 C113.29 9 51.58 9 -12 9 C-9.47439892 6.47439892 -7.26951335 4.74098697 -4.3125 2.8125 C-3.50425781 2.28269531 -2.69601562 1.75289062 -1.86328125 1.20703125 C-1.24839844 0.80871094 -0.63351562 0.41039062 0 0 Z " fill="#33B6C7" transform="translate(321,683)"/>
<path d="M0 0 C63.69 0 127.38 0 193 0 C191.68 1.32 190.36 2.64 189 4 C188.67 3.34 188.34 2.68 188 2 C125.96 1.67 63.92 1.34 0 1 C0 0.67 0 0.34 0 0 Z " fill="#013235" transform="translate(248,420)"/>
<path d="M0 0 C51.15 0 102.3 0 155 0 C151.37421254 2.90062997 147.84192932 5.43871379 144 8 C143.0925 8.7425 142.185 9.485 141.25 10.25 C139 12 139 12 137 12 C137 11.34 137 10.68 137 10 C137.66 10 138.32 10 139 10 C139 9.34 139 8.68 139 8 C140.75 6.7109375 140.75 6.7109375 143 5.375 C143.37125 5.15199219 143.37125 5.15199219 145.25 4.0234375 C145.8275 3.68570312 146.405 3.34796875 147 3 C146.67 2.67 146.34 2.34 146 2 C144.06447614 2.25806985 142.12881101 2.52035235 140.203125 2.84375 C138 3 138 3 135.71545887 2.51965427 C132.86410471 1.97399387 130.2512564 1.86096203 127.34953308 1.84178162 C126.22357727 1.8319928 125.09762146 1.82220398 123.93754578 1.81211853 C122.71187393 1.80636307 121.48620209 1.8006076 120.22338867 1.79467773 C118.92543365 1.78477814 117.62747864 1.77487854 116.29019165 1.76467896 C112.73896762 1.73770228 109.1877304 1.71665367 105.63646102 1.69667697 C101.92219259 1.67477264 98.2079645 1.64740575 94.49372864 1.62062073 C87.46384773 1.57075388 80.43394438 1.52579282 73.40401965 1.48259836 C65.39919265 1.43317457 57.39440611 1.37827555 49.38961828 1.32291877 C32.92644952 1.20919098 16.46324362 1.10233199 0 1 C0 0.67 0 0.34 0 0 Z " fill="#53DBC5" transform="translate(318,351)"/>
<path d="M0 0 C0.33 0 0.66 0 1 0 C0.33554654 5.64146541 -0.50306602 11.22078616 -1.5 16.8125 C-1.63019531 17.56208984 -1.76039063 18.31167969 -1.89453125 19.08398438 C-2.43595947 22.14387414 -3.01585545 25.04756636 -4 28 C-9.0213309 54.71504955 -8.28356812 84.00496256 -6 111 C-6.33 111.165 -6.33 111.165 -8 112 C-8.80521957 104.47266052 -9.14823958 97.04829685 -9.1328125 89.48046875 C-9.13376923 88.41943436 -9.13472595 87.35839996 -9.13571167 86.26521301 C-9.13638756 84.03577617 -9.13457483 81.80633728 -9.13037109 79.5769043 C-9.12503062 76.20682236 -9.13032811 72.83687465 -9.13671875 69.46679688 C-9.14453501 53.66962748 -8.60062304 38.55486099 -5.47094727 23.02880859 C-5.05755123 20.97541885 -4.65777499 18.91970347 -4.25976562 16.86328125 C-3.1290157 11.11606945 -1.95565098 5.53619078 0 0 Z " fill="#1D4C5F" transform="translate(134,464)"/>
<path d="M0 0 C23.1 0 46.2 0 70 0 C70 0.33 70 0.66 70 1 C68.99839844 1.19335938 67.99679687 1.38671875 66.96484375 1.5859375 C65.62236492 1.84880049 64.27991873 2.11183026 62.9375 2.375 C62.28072266 2.50132812 61.62394531 2.62765625 60.94726562 2.7578125 C56.55269129 3.62373848 52.25228434 4.58076624 48 6 C47.67 6.66 47.34 7.32 47 8 C44.69 8 42.38 8 40 8 C43 6 43 6 45 6 C45 5.01 45 4.02 45 3 C45.66 3 46.32 3 47 3 C47 2.34 47 1.68 47 1 C46.39285156 1.04189453 46.39285156 1.04189453 43.3203125 1.25390625 C28.82002463 2.14969353 14.50047615 1.76027939 0 1 C0 0.67 0 0.34 0 0 Z " fill="#2D838D" transform="translate(350,624)"/>
<path d="M0 0 C4.93293565 4.01419405 5.92205016 11.00500845 7 17 C8.27526273 30.73679746 5.71445663 42.50545962 -2 54 C-4.875 56.6875 -4.875 56.6875 -7 58 C-6.39479338 54.6108429 -5.08699255 52.69569871 -3 50 C-2.67 49.01 -2.34 48.02 -2 47 C-1.34 47 -0.68 47 0 47 C4.56205444 36.28908958 6.19465939 20.15802359 2.296875 8.984375 C1.30818814 6.59989493 0.15398034 4.30796067 -1 2 C-0.67 1.34 -0.34 0.68 0 0 Z " fill="#48C7A6" transform="translate(527,379)"/>
<path d="M0 0 C0.33 0 0.66 0 1 0 C1.39839753 4.51517196 0.06079662 7.03692957 -2 11 C-3.79660389 16.25409698 -4.32124112 20.83250917 -4.25 26.3125 C-4.24395752 27.05870605 -4.23791504 27.80491211 -4.23168945 28.57373047 C-4.08311172 36.87427328 -2.9350642 44.6020793 1 52 C1.99 52.33 2.98 52.66 4 53 C4.33 55.31 4.66 57.62 5 60 C-2.39463644 53.66174019 -6.26834613 44.3935122 -7.22045898 34.7722168 C-7.33883057 32.42705791 -7.37953994 30.09810626 -7.375 27.75 C-7.37455688 27.33512329 -7.37455688 27.33512329 -7.37231445 25.2355957 C-7.23928635 18.28504632 -5.88318155 12.35540019 -3 6 C-2.69191406 5.32066406 -2.38382813 4.64132812 -2.06640625 3.94140625 C-1.42157864 2.60547153 -0.72041069 1.29673924 0 0 Z " fill="#289BBC" transform="translate(254,613)"/>
<path d="M0 0 C-1.65 0.66 -3.3 1.32 -5 2 C-4.3426738 1.99555878 -3.6853476 1.99111755 -3.00810242 1.98654175 C3.82099234 1.9423634 10.65004663 1.91215646 17.47924805 1.89013672 C20.02939502 1.88006672 22.57953042 1.86640996 25.12963867 1.84912109 C28.7908819 1.82491688 32.45197274 1.81352695 36.11328125 1.8046875 C36.68519447 1.79952621 36.68519447 1.79952621 39.579422 1.77340698 C40.64029526 1.77325592 41.70116852 1.77310486 42.79418945 1.77294922 C43.72906693 1.768508 44.6639444 1.76406677 45.62715149 1.75949097 C48 2 48 2 51 4 C24.27 4 -2.46 4 -30 4 C-30 3.67 -30 3.34 -30 3 C-29.39003174 2.91435791 -28.78006348 2.82871582 -28.15161133 2.74047852 C-25.37169549 2.34930936 -22.59209736 1.95592556 -19.8125 1.5625 C-19.33264648 1.49514648 -19.33264648 1.49514648 -16.90429688 1.15429688 C-15.97294922 1.02216797 -15.04160156 0.89003906 -14.08203125 0.75390625 C-13.22843018 0.63345947 -12.3748291 0.5130127 -11.49536133 0.38891602 C-9.76377432 0.1190385 -8.04027714 -0.20624969 -6.3269043 -0.57446289 C-3.8478202 -1.02783017 -2.36715773 -0.78905258 0 0 Z " fill="#349487" transform="translate(382,416)"/>
<path d="M0 0 C0.66 0 1.32 0 2 0 C0.67005617 2.95265112 -0.77779316 5.02350216 -3.07275391 7.29980469 C-3.69324615 7.92014587 -4.3137384 8.54048706 -4.95303345 9.17962646 C-5.62079803 9.83706848 -6.28856262 10.4945105 -6.9765625 11.171875 C-7.66181 11.8542926 -8.3470575 12.53671021 -9.05307007 13.23980713 C-11.23905845 15.41461598 -13.43190429 17.58236072 -15.625 19.75 C-17.10983255 21.2247999 -18.59421306 22.70005506 -20.078125 24.17578125 C-23.7135291 27.78915448 -27.35509824 31.39620853 -31 35 C-31.66 34.67 -32.32 34.34 -33 34 C-32 31 -32 31 -29.5 29.5625 C-29.0875 29.3046875 -29.0875 29.3046875 -27 28 C-26.855625 27.34 -26.71125 26.68 -26.5625 26 C-26.376875 25.34 -26.19125 24.68 -26 24 C-24.00854609 22.98308736 -22.00812926 21.98357352 -20 21 C-18.875 19.0625 -18.875 19.0625 -18 17 C-16 14.75 -16 14.75 -14 13 C-13.34 13 -12.68 13 -12 13 C-12 12.34 -12 11.68 -12 11 C-11.34 11 -10.68 11 -10 11 C-10 9.68 -10 8.36 -10 7 C-8.68 7 -7.36 7 -6 7 C-6.33 6.01 -6.66 5.02 -7 4 C-6.21625 3.71125 -5.4325 3.4225 -4.625 3.125 C-2 2 -2 2 0 0 Z " fill="#49D3B8" transform="translate(517,438)"/>
<path d="M0 0 C0.66 0.33 1.32 0.66 2 1 C-2.56225711 6.11887235 -7.15089999 11.15089999 -12 16 C-12.33 16.4125 -12.33 16.4125 -14 18.5 C-16 21 -16 21 -18.625 23.4375 C-22.03372829 27.11533841 -22.93038777 30.22488803 -23.125 35.1875 C-23.104375 35.6515625 -23.104375 35.6515625 -23 38 C-23 38.99 -23 39.98 -23 41 C-25.49391943 37.90753991 -26.27799151 35.57981547 -26.0625 31.6875 C-24.43478719 22.1755211 -15.70154264 15.44778503 -9.125 9 C-8.24585938 8.12988281 -7.36671875 7.25976562 -6.4609375 6.36328125 C-4.3118143 4.23751809 -2.15814069 2.11660111 0 0 Z " fill="#0C4157" transform="translate(317,647)"/>
<path d="M0 0 C0.33 0 0.66 0 1 0 C1.68547225 3.85578141 1.59609654 5.97227614 -0.39453125 9.40429688 C-5.83858705 16.86076841 -11.91007045 23.26844435 -18.5 29.6875 C-19.5241461 30.69654693 -20.54758764 31.70630947 -21.5703125 32.71679688 C-24.03884544 35.15279674 -26.5166388 37.57910725 -29 40 C-29.33 39.34 -29.66 38.68 -30 38 C-27.75164531 34.94223762 -25.4276945 32.44872842 -22.5 30.0625 C-18.43368984 26.67681686 -15.68719109 23.06157328 -14 18 C-13.525625 17.9690625 -13.525625 17.9690625 -11.125 17.8125 C-10.09375 17.544375 -9.0625 17.27625 -8 17 C-6.6875 14.5625 -6.6875 14.5625 -6 12 C-5.67 11.34 -5.34 10.68 -5 10 C-4.34 10 -3.68 10 -3 10 C-2.87625 9.46375 -2.7525 8.9275 -2.625 8.375 C-1.87793984 5.5361714 -0.94696636 2.77776798 0 0 Z " fill="#10574C" transform="translate(489,361)"/>
<path d="M0 0 C7.76751234 -0.51783416 13.75880117 1.25545087 21 4 C21 4.66 21 5.32 21 6 C20.01 6.33 19.02 6.66 18 7 C17.67 6.34 17.34 5.68 17 5 C14.6859378 4.26924352 12.35171131 3.59861742 10 3 C9.40295912 7.17928615 8.96118875 10.97566922 9.25 15.1875 C9 19 9 19 6.6875 22 C4 24 4 24 1 24 C1.825 23.030625 2.65 22.06125 3.5 21.0625 C6.1044169 17.39702436 6.68453933 14.60462268 6.43359375 10.1484375 C5.56693643 5.85418954 3.01435364 3.01435364 0 0 Z " fill="#4DDAB4" transform="translate(483,351)"/>
<path d="M0 0 C-1.56282982 3.76603869 -3.9063475 6.13639151 -6.7890625 8.984375 C-7.25234955 9.44483215 -7.7156366 9.90528931 -8.19296265 10.37969971 C-9.66565898 11.84125078 -11.14517403 13.29567168 -12.625 14.75 C-13.62806322 15.74302611 -14.63067257 16.73651089 -15.6328125 17.73046875 C-18.08330835 20.15897941 -20.5399667 22.58114675 -23 25 C-23.33 24.01 -23.66 23.02 -24 22 C-23.34 22 -22.68 22 -22 22 C-21.34 20.68 -20.68 19.36 -20 18 C-19.34 18 -18.68 18 -18 18 C-18.33 16.68 -18.66 15.36 -19 14 C-17.35 14 -15.7 14 -14 14 C-14.20625 13.38125 -14.4125 12.7625 -14.625 12.125 C-14.74875 11.42375 -14.8725 10.7225 -15 10 C-14.34 9.34 -13.68 8.68 -13 8 C-12.34 8 -11.68 8 -11 8 C-7.86065222 6.03790764 -6.54480854 4.31030401 -5 1 C-3 0 -3 0 0 0 Z " fill="#3DC2B1" transform="translate(483,475)"/>
<path d="M0 0 C24.75 0 49.5 0 75 0 C73.68 1.32 72.36 2.64 71 4 C70.835 3.67 70.835 3.67 70 2 C46.9 1.67 23.8 1.34 0 1 C0 0.67 0 0.34 0 0 Z " fill="#072A2B" transform="translate(366,420)"/>
<path d="M0 0 C0.165 0.495 0.165 0.495 1 3 C-0.28627711 4.17260611 -1.57919783 5.3379283 -2.875 6.5 C-3.59429687 7.1496875 -4.31359375 7.799375 -5.0546875 8.46875 C-7 10 -7 10 -9 10 C-9.24878906 10.59683594 -9.49757813 11.19367188 -9.75390625 11.80859375 C-11.18318632 14.32215525 -12.57958043 15.41590812 -14.9375 17.0625 C-17.53477746 18.89273103 -19.7631578 20.75044847 -22 23 C-23.32520503 23.68268138 -24.65812182 24.3507041 -26 25 C-26.66 25.66 -27.32 26.32 -28 27 C-30.625 27.625 -30.625 27.625 -33 28 C-30.17226749 25.02101669 -27.24386426 22.65499017 -23.875 20.3125 C-18.20126292 16.24795866 -13.12295432 11.72628405 -8 7 C-5.34582253 4.65223977 -2.6750875 2.32388886 0 0 Z " fill="#137C68" transform="translate(442,375)"/>
<path d="M0 0 C0.66 0.33 1.32 0.66 2 1 C1.938125 2.216875 1.87625 3.43375 1.8125 4.6875 C1.8125 8.62940317 2.59609217 10.79478956 5 14 C6 15.33333333 7 16.66666667 8 18 C1.90218999 18.22084624 -3.21642935 18.01167675 -9 16 C-6.64561267 14.57055055 -5.51967567 13.91338739 -2.75 14.375 C-2.1725 14.58125 -1.595 14.7875 -1 15 C-0.67 14.01 -0.34 13.02 0 12 C-0.33 11.67 -0.66 11.34 -1 11 C-2.33121019 3.49681529 -2.33121019 3.49681529 0 0 Z " fill="#249AC0" transform="translate(290,674)"/>
<path d="M0 0 C22.11 0 44.22 0 67 0 C66.01 1.65 65.02 3.3 64 5 C63.835 4.505 63.835 4.505 63 2 C42.21 1.67 21.42 1.34 0 1 C0 0.67 0 0.34 0 0 Z " fill="#27292F" transform="translate(275,828)"/>
<path d="M0 0 C0 4.02370391 -1.38330362 4.97014103 -4 8 C-4.49371094 8.6084375 -4.98742187 9.216875 -5.49609375 9.84375 C-6.01300781 10.4728125 -6.52992188 11.101875 -7.0625 11.75 C-7.54847656 12.34296875 -8.03445313 12.9359375 -8.53515625 13.546875 C-10 15 -10 15 -13 16 C-13.70151152 17.3153341 -14.36525925 18.65117592 -15 20 C-16.375 21.8125 -16.375 21.8125 -18 23 C-19.32 22.67 -20.64 22.34 -22 22 C-14.74 14.74 -7.48 7.48 0 0 Z " fill="#07262F" transform="translate(404,557)"/>
<path d="M0 0 C0.33 0.66 0.66 1.32 1 2 C0.505 2.825 0.505 2.825 -2 7 C2.95 7.165 2.95 7.165 28 8 C28 8.33 28 8.66 28 9 C14.8 9 1.6 9 -12 9 C-9.47439892 6.47439892 -7.26951335 4.74098697 -4.3125 2.8125 C-3.50425781 2.28269531 -2.69601562 1.75289062 -1.86328125 1.20703125 C-1.24839844 0.80871094 -0.63351562 0.41039062 0 0 Z " fill="#2DAAC8" transform="translate(321,683)"/>
<path d="M0 0 C0.33 0 0.66 0 1 0 C2.12133717 7.11407601 2.38695504 14.20475039 2.61254883 21.39526367 C2.68674685 23.66446649 2.77774763 25.9326056 2.86914062 28.20117188 C3.16646481 36.71596369 2.86270179 44.6254469 1 53 C0.67 53 0.34 53 0 53 C0 35.51 0 18.02 0 0 Z " fill="#1E4F52" transform="translate(603,512)"/>
<path d="M0 0 C0 5.89038089 -5.2190165 10.74639356 -9 15 C-11.3125 16.875 -11.3125 16.875 -13 18 C-10.69 18.33 -8.38 18.66 -6 19 C-6 19.33 -6 19.66 -6 20 C-9.96 20 -13.92 20 -18 20 C-15.34481093 15.77136555 -12.63248481 12.47104105 -9 9 C-7.39313045 7.39854078 -5.78915427 5.79417513 -4.1875 4.1875 C-2.79166667 2.79166667 -1.39583333 1.39583333 0 0 Z " fill="#0C2632" transform="translate(358,604)"/>
<path d="M0 0 C0.33 0 0.66 0 1 0 C0.25 6.75 0.25 6.75 -2 9 C-2.39764263 10.98821313 -2.73775349 12.98944339 -3 15 C-3.66 15 -4.32 15 -5 15 C-5.103125 15.94875 -5.20625 16.8975 -5.3125 17.875 C-6 21 -6 21 -9 23 C-8.67 19.37 -8.34 15.74 -8 12 C-7.34 12 -6.68 12 -6 12 C-5.34 10.02 -4.68 8.04 -4 6 C-3.34 6 -2.68 6 -2 6 C-1.34 4.02 -0.68 2.04 0 0 Z " fill="#122B3A" transform="translate(154,409)"/>
<path d="M0 0 C0.33 0.66 0.66 1.32 1 2 C2.32 1.67 3.64 1.34 5 1 C5 1.99 5 2.98 5 4 C6.91487817 5.65956108 8.73576718 6.86788359 11 8 C10.67 8.66 10.34 9.32 10 10 C11.98 10.66 13.96 11.32 16 12 C16 12.66 16 13.32 16 14 C16.825 14.165 16.825 14.165 21 15 C21 15.66 21 16.32 21 17 C15.6205082 15.74974123 12.17576192 14.01799873 7.75 10.5625 C6.73421875 9.78003906 5.7184375 8.99757813 4.671875 8.19140625 C2.64968164 6.53285293 0.78590709 4.90211337 -1 3 C-0.67 2.01 -0.34 1.02 0 0 Z " fill="#209AC0" transform="translate(260,672)"/>
<path d="M0 0 C0 0.99 0 1.98 0 3 C-1.33333333 4.33333333 -2.66666667 5.66666667 -4 7 C-4.75 9.25 -4.75 9.25 -5 11 C-5.66 11 -6.32 11 -7 11 C-7 11.66 -7 12.32 -7 13 C-7.78375 13.226875 -8.5675 13.45375 -9.375 13.6875 C-12 15 -12 15 -13.1875 17.5625 C-13.3215625 17.9646875 -13.3215625 17.9646875 -14 20 C-14.66 20.33 -15.32 20.66 -16 21 C-16.99 20.34 -17.98 19.68 -19 19 C-12.73 12.73 -6.46 6.46 0 0 Z " fill="#42C3B3" transform="translate(444,417)"/>
<path d="M0 0 C0.33 0 0.66 0 1 0 C0.51508507 4.76833017 -0.06611332 8.5950359 -2 13 C-3.95611332 18.35301977 -5.45021046 23.6411545 -6.47265625 29.25 C-6.64667969 29.8275 -6.82070312 30.405 -7 31 C-7.66 31.33 -8.32 31.66 -9 32 C-8.25403037 24.5403037 -6.63253871 17.31048782 -5 10 C-4.34 10 -3.68 10 -3 10 C-2.01 6.7 -1.02 3.4 0 0 Z " fill="#164351" transform="translate(144,432)"/>
<path d="M0 0 C5.28 0 10.56 0 16 0 C12.06915563 2.62056292 8.19107175 3.20964364 3.6171875 4.21875 C2.75351562 4.4765625 1.88984375 4.734375 1 5 C0.67 5.66 0.34 6.32 0 7 C-2.31 7 -4.62 7 -7 7 C-4 5 -4 5 -2 5 C-2 4.01 -2 3.02 -2 2 C-1.34 2 -0.68 2 0 2 C0 1.34 0 0.68 0 0 Z " fill="#1E949D" transform="translate(397,625)"/>
<path d="M0 0 C0.66 0 1.32 0 2 0 C5.54268343 7.70148572 6.18127659 14.51722677 6.1875 22.9375 C6.19974609 23.80568359 6.21199219 24.67386719 6.22460938 25.56835938 C6.23642586 30.77943096 5.69779129 35.06768142 4 40 C3.34 40 2.68 40 2 40 C2.144375 39.45214844 2.28875 38.90429688 2.4375 38.33984375 C5.58547105 24.89538408 4.11288699 12.94457735 0 0 Z " fill="#012421" transform="translate(529,381)"/>
<path d="M0 0 C0 5.04228641 -3.1918587 8.15243717 -6.5625 11.6875 C-7.366875 12.450625 -8.17125 13.21375 -9 14 C-9.515625 14.61875 -10.03125 15.2375 -10.5625 15.875 C-10.7996875 16.060625 -10.7996875 16.060625 -12 17 C-13.32 16.67 -14.64 16.34 -16 16 C-10.72 10.72 -5.44 5.44 0 0 Z " fill="#30B7C4" transform="translate(336,528)"/>
<path d="M0 0 C0.8125 1.6875 0.8125 1.6875 1 4 C-1.125 6.4375 -1.125 6.4375 -4 9 C-4.825 9.845625 -5.65 10.69125 -6.5 11.5625 C-9 14 -9 14 -11.75 16.1875 C-14 18 -14 18 -15 20 C-15.99 19.67 -16.98 19.34 -18 19 C-17.52578613 18.53102295 -17.05157227 18.0620459 -16.56298828 17.57885742 C-14.41436915 15.45103477 -12.26965202 13.31932077 -10.125 11.1875 C-9.37863281 10.44951172 -8.63226563 9.71152344 -7.86328125 8.95117188 C-7.14785156 8.23896484 -6.43242187 7.52675781 -5.6953125 6.79296875 C-5.03547363 6.1383667 -4.37563477 5.48376465 -3.69580078 4.80932617 C-2 3 -2 3 0 0 Z " fill="#2EADBF" transform="translate(319,545)"/>
<path d="M0 0 C0.99 0.33 1.98 0.66 3 1 C2.62617188 1.36222656 2.62617188 1.36222656 0.734375 3.1953125 C-0.2606869 4.17159965 -1.25546337 5.14817777 -2.25 6.125 C-2.74113281 6.599375 -3.23226563 7.07375 -3.73828125 7.5625 C-7.02000071 10.8004632 -9.56079592 14.08565821 -12 18 C-12.93423645 14.98968256 -13.04449911 14.13349732 -12 11 C-10.27104867 9.64819737 -8.45737791 8.53603588 -6.59375 7.37890625 C-4.63441275 5.68369534 -4.52904123 4.47733728 -4 2 C-3.34 1.67 -2.68 1.34 -2 1 C-1.34 1.33 -0.68 1.66 0 2 C0 1.34 0 0.68 0 0 Z " fill="#2EA8CA" transform="translate(304,657)"/>
<path d="M0 0 C0 0.66 0 1.32 0 2 C-1.64093257 3.43025226 -3.33991003 4.7942239 -5.0625 6.125 C-8.70714598 9.01735367 -11.88055175 11.82539259 -14.8125 15.4375 C-17.52718192 18.73577296 -19.69296662 20.15960324 -24 21 C-21.16073031 17.09600418 -17.94637762 14.08803395 -14.296875 10.98046875 C-10.81914594 7.98181461 -7.46854446 4.84467203 -4.1015625 1.72265625 C-2 0 -2 0 0 0 Z " fill="#2CAEC8" transform="translate(361,649)"/>
<path d="M0 0 C0.33 0.165 0.33 0.165 2 1 C1.67 1.165 1.67 1.165 0 2 C0 1.34 0 0.68 0 0 Z M-2 3 C-2 6 -2 6 -4.3125 8.5 C-5.77058363 9.85635686 -7.23800919 11.20400787 -8.75 12.5 C-10.44395709 14.5327485 -10.65107359 16.41794457 -11 19 C-12.32 18.67 -13.64 18.34 -15 18 C-11.61182282 11.72861435 -7.56838307 7.42154487 -2 3 Z " fill="#46E2BA" transform="translate(488,372)"/>
<path d="M0 0 C0 1.65 0 3.3 0 5 C-0.66 5 -1.32 5 -2 5 C-2.2165625 5.391875 -2.2165625 5.391875 -3.3125 7.375 C-5.30504161 10.47450917 -6.6258009 10.78874904 -10 12 C-10.33 12.495 -10.33 12.495 -12 15 C-12.66 14.34 -13.32 13.68 -14 13 C-11.85714108 10.83031809 -9.71091768 8.66416525 -7.5625 6.5 C-7.25666992 6.18998047 -7.25666992 6.18998047 -5.70898438 4.62109375 C-5.12568359 4.03457031 -4.54238281 3.44804688 -3.94140625 2.84375 C-3.67171021 2.57143555 -3.67171021 2.57143555 -2.30688477 1.19335938 C-1 0 -1 0 0 0 Z " fill="#2AA4B8" transform="translate(297,569)"/>
<path d="M0 0 C-0.53689453 0.25974609 -0.53689453 0.25974609 -3.25390625 1.57421875 C-4.69026565 2.2783165 -6.1264545 2.98276225 -7.5625 3.6875 C-8.26697266 4.02716797 -8.97144531 4.36683594 -9.69726562 4.71679688 C-13.33335901 6.50970928 -16.60839598 8.3742266 -19.83984375 10.83203125 C-20.88269531 11.54746094 -21.92554688 12.26289062 -23 13 C-23.99 12.67 -24.98 12.34 -26 12 C-23.82896374 9.61186011 -21.87197491 8.4186864 -19 7 C-15.91364771 5.20618719 -12.84573208 3.38293835 -9.77734375 1.55859375 C-6.02294562 -0.54830478 -4.08521433 -1.26782514 0 0 Z " fill="#188A97" transform="translate(387,634)"/>
<path d="M0 0 C0.33 0.99 0.66 1.98 1 3 C-3.38067283 8.10337266 -7.67576522 12.87371805 -13 17 C-13.66 16.67 -14.32 16.34 -15 16 C-12.525 13.36 -12.525 13.36 0 0 Z " fill="#071E25" transform="translate(420,540)"/>
<path d="M0 0 C0.33 0.99 0.66 1.98 1 3 C-3 7 -7 11 -11 15 C-11.99 14.67 -12.98 14.34 -14 14 C-9.38 9.38 -4.76 4.76 0 0 Z " fill="#40C4BE" transform="translate(414,448)"/>
<path d="M0 0 C4.03395037 3.52546923 4.9885205 7.87236088 6 13 C6.22275018 16.68465929 6.18916524 20.31478085 6 24 C4.39097203 21.13735185 3.75397396 18.95416172 3.5625 15.6875 C3.0901403 10.48295494 1.32722806 6.65445613 -1 2 C-0.67 1.34 -0.34 0.68 0 0 Z " fill="#51DFB8" transform="translate(527,379)"/>
<path d="M0 0 C3.72024288 2.03866713 6.38380142 4.1971134 9.1875 7.375 C9.86167969 8.12523437 10.53585937 8.87546875 11.23046875 9.6484375 C13.02327943 12.03093646 14.03282365 14.19270865 15 17 C14.34 17 13.68 17 13 17 C8.26923077 11.80769231 8.26923077 11.80769231 7 8 C6.01 7.34 5.02 6.68 4 6 C4 5.34 4 4.68 4 4 C2.35 3.67 0.7 3.34 -1 3 C-0.67 2.01 -0.34 1.02 0 0 Z " fill="#4BCFA8" transform="translate(512,361)"/>
<path d="M0 0 C0.33 0 0.66 0 1 0 C2.19876651 5.44893869 1.91360308 8.22169095 -1 13 C-1.66 13 -2.32 13 -3 13 C-3.33 15.64 -3.66 18.28 -4 21 C-4.33 21 -4.66 21 -5 21 C-3.57142857 3.57142857 -3.57142857 3.57142857 0 0 Z " fill="#18373F" transform="translate(651,607)"/>
<path d="M0 0 C2.64 0 5.28 0 8 0 C7.01 0.66 6.02 1.32 5 2 C5.680625 2.763125 6.36125 3.52625 7.0625 4.3125 C7.701875 5.199375 8.34125 6.08625 9 7 C8.67 7.99 8.34 8.98 8 10 C7.34 8.68 6.68 7.36 6 6 C5.01 6.99 4.02 7.98 3 9 C2.34 8.67 1.68 8.34 1 8 C1.20625 7.4225 1.4125 6.845 1.625 6.25 C2.08661261 3.48032433 1.42944945 2.35438733 0 0 Z " fill="#12443F" transform="translate(480,350)"/>
<path d="M0 0 C2.97 0 5.94 0 9 0 C5.46662649 2.90983701 1.80613954 5.46257364 -2 8 C-2.9075 8.7425 -3.815 9.485 -4.75 10.25 C-7 12 -7 12 -9 12 C-9 11.34 -9 10.68 -9 10 C-8.34 10 -7.68 10 -7 10 C-7 9.34 -7 8.68 -7 8 C-5.25 6.7109375 -5.25 6.7109375 -3 5.375 C-2.2575 4.92898438 -1.515 4.48296875 -0.75 4.0234375 C-0.46125 3.85457031 -0.46125 3.85457031 1 3 C0.67 2.67 0.34 2.34 0 2 C0 1.34 0 0.68 0 0 Z " fill="#4BD9B6" transform="translate(464,351)"/>
<path d="M0 0 C5.8022175 -0.36263859 9.63999211 0.74315457 15 3 C15 3.66 15 4.32 15 5 C14.01 5.33 13.02 5.66 12 6 C11.67 5.34 11.34 4.68 11 4 C8.6859378 3.26924352 6.35171131 2.59861742 4 2 C3.34 3.32 2.68 4.64 2 6 C1.01 4.68 0.02 3.36 -1 2 C-0.67 1.34 -0.34 0.68 0 0 Z " fill="#43E4B6" transform="translate(489,352)"/>
<path d="M0 0 C0.66 0.33 1.32 0.66 2 1 C-0.59676248 3.48702127 -3.20361195 5.96320635 -5.8125 8.4375 C-6.18149414 8.79102539 -6.18149414 8.79102539 -8.04882812 10.58007812 C-8.76103516 11.25361328 -9.47324219 11.92714844 -10.20703125 12.62109375 C-10.8616333 13.2442749 -11.51623535 13.86745605 -12.19067383 14.50952148 C-14 16 -14 16 -17 17 C-16.835 16.505 -16.835 16.505 -16 14 C-15.34 14 -14.68 14 -14 14 C-14 13.34 -14 12.68 -14 12 C-13.34 12 -12.68 12 -12 12 C-11.67 11.01 -11.34 10.02 -11 9 C-9.20064272 7.37468352 -7.33727432 5.81921756 -5.4375 4.3125 C-4.93154297 3.90837891 -4.93154297 3.90837891 -2.37109375 1.86328125 C-1.58863281 1.24839844 -0.80617188 0.63351562 0 0 Z " fill="#127286" transform="translate(357,649)"/>
<path d="M0 0 C0 5.65864454 -5.42037773 9.87590444 -9 14 C-10.32 13.67 -11.64 13.34 -13 13 C-8.71 8.71 -4.42 4.42 0 0 Z " fill="#0E5E73" transform="translate(332,631)"/>
<path d="M0 0 C0.33 0.66 0.66 1.32 1 2 C-1.88045467 6.65304216 -5.03915221 10.21919074 -9 14 C-9.99 13.67 -10.98 13.34 -12 13 C-8.04 8.71 -4.08 4.42 0 0 Z " fill="#0B2C31" transform="translate(493,465)"/>
<path d="M0 0 C0.66 0 1.32 0 2 0 C1.690625 0.845625 1.38125 1.69125 1.0625 2.5625 C-0.58965974 7.90772267 -1.49085717 12.53352373 0 18 C-3 16 -3 16 -3.6171875 14.046875 C-4.20817247 8.78173619 -3.99704993 5.61084604 -1 1 C-0.67 0.67 -0.34 0.34 0 0 Z " fill="#062B41" transform="translate(295,670)"/>
<path d="M0 0 C0 4.1216293 -1.52178918 5.7391963 -4 9 C-5.92484267 10.80277948 -7.90866501 12.38396842 -10 14 C-9.54261927 9.31808451 -7.80889606 7.36895826 -4.4375 4.1875 C-3.61121094 3.39730469 -2.78492188 2.60710937 -1.93359375 1.79296875 C-1.29550781 1.20128906 -0.65742188 0.60960937 0 0 Z " fill="#0B3336" transform="translate(456,503)"/>
<path d="M0 0 C0 3 0 3 -1 6 C-1.66 6 -2.32 6 -3 6 C-3.1134375 6.2990625 -3.1134375 6.2990625 -3.6875 7.8125 C-5.3611297 10.60188284 -7.08817726 11.6168842 -10 13 C-10.66 12.67 -11.32 12.34 -12 12 C-8.04 8.04 -4.08 4.08 0 0 Z " fill="#38ABB6" transform="translate(360,503)"/>
<path d="M0 0 C0.33 0 0.66 0 1 0 C1.42955083 4.34383273 1.50809843 6.33312081 -1.1875 9.87109375 C-2.115625 10.71800781 -3.04375 11.56492187 -4 12.4375 C-4.928125 13.30246094 -5.85625 14.16742188 -6.8125 15.05859375 C-7.534375 15.69925781 -8.25625 16.33992188 -9 17 C-9.33 16.01 -9.66 15.02 -10 14 C-9.34 14 -8.68 14 -8 14 C-7.34 12.68 -6.68 11.36 -6 10 C-5.34 10 -4.68 10 -4 10 C-4.33 8.68 -4.66 7.36 -5 6 C-3.35 6 -1.7 6 0 6 C-0.185625 5.38125 -0.37125 4.7625 -0.5625 4.125 C-1 2 -1 2 0 0 Z " fill="#3FC8BA" transform="translate(469,483)"/>
<path d="M0 0 C0.66 0.33 1.32 0.66 2 1 C0.92319498 2.13125022 -0.16175635 3.25474919 -1.25 4.375 C-1.85328125 5.00148438 -2.4565625 5.62796875 -3.078125 6.2734375 C-4.98132236 7.98322049 -6.70646588 8.91009742 -9 10 C-9.66 10.66 -10.32 11.32 -11 12 C-13.625 12.625 -13.625 12.625 -16 13 C-13.01570941 9.84558358 -9.84773081 7.328225 -6.3125 4.8125 C-1.06944444 1.06944444 -1.06944444 1.06944444 0 0 Z " fill="#16927A" transform="translate(425,390)"/>
<path d="M0 0 C-0.5465625 0.2990625 -0.5465625 0.2990625 -3.3125 1.8125 C-5.94719514 3.30972635 -7.90441114 4.80462119 -10 7 C-12.1875 8.1875 -12.1875 8.1875 -14 9 C-14.33 8.34 -14.66 7.68 -15 7 C-11.01070672 2.52715601 -6.28600736 -2.09533579 0 0 Z " fill="#145950" transform="translate(479,351)"/>
<path d="M0 0 C0 3 0 3 -2.25 5.375 C-3.1575 6.24125 -4.065 7.1075 -5 8 C-5.66 8.928125 -6.32 9.85625 -7 10.8125 C-9 13 -9 13 -11.75 13.3125 C-12.12125 13.2609375 -12.12125 13.2609375 -14 13 C-9.55618306 8.41283413 -4.79771501 4.21237287 0 0 Z " fill="#29A9C5" transform="translate(336,670)"/>
<path d="M0 0 C0.66 0 1.32 0 2 0 C2.33 5.94 2.66 11.88 3 18 C2.67 17.01 2.34 16.02 2 15 C1.34 15 0.68 15 0 15 C0 10.05 0 5.1 0 0 Z " fill="#2DA5C8" transform="translate(247,635)"/>
<path d="M0 0 C3.53014782 3.53014782 4.34546712 7.01219964 5.125 11.875 C5.29257812 12.88304687 5.46015625 13.89109375 5.6328125 14.9296875 C5.99827995 17.98561748 6.06424163 20.92557891 6 24 C3.68092636 20.08264588 2.87506741 15.82668476 1.875 11.4375 C1.69324219 10.66986328 1.51148438 9.90222656 1.32421875 9.11132812 C0.60624235 6.01539228 0 3.18871791 0 0 Z " fill="#225350" transform="translate(647,456)"/>
<path d="M0 0 C0.66 0.33 1.32 0.66 2 1 C-2.62 5.62 -7.24 10.24 -12 15 C-12.33 14.34 -12.66 13.68 -13 13 C-10.22447974 9.22529245 -7.17125756 6.29892274 -3.5859375 3.33203125 C-2 2 -2 2 0 0 Z " fill="#0C5F51" transform="translate(472,386)"/>
<path d="M0 0 C1.2375 0.309375 2.475 0.61875 3.75 0.9375 C4.09804688 1.02451172 4.09804688 1.02451172 5.859375 1.46484375 C7.90625 1.9765625 9.953125 2.48828125 12 3 C11.67 3.66 11.34 4.32 11 5 C6.71 5 2.42 5 -2 5 C-0.68 4.34 0.64 3.68 2 3 C1.34 2.01 0.68 1.02 0 0 Z " fill="#153950" transform="translate(295,688)"/>
<path d="M0 0 C0.33 0.66 0.66 1.32 1 2 C0.04906703 3.69514137 -0.95107762 5.36368108 -2 7 C-2 7.33 -2 7.66 -2 8 C-4.97 8 -7.94 8 -11 8 C-7.38813161 5.25498003 -3.69604737 2.62987986 0 0 Z " fill="#25A4C4" transform="translate(321,683)"/>
<path d="M0 0 C0.66 0 1.32 0 2 0 C0.59155282 3.21524305 -1.10344786 5.32183868 -3.625 7.75 C-3.94082031 8.05679688 -3.94082031 8.05679688 -5.5390625 9.609375 C-6.02117187 10.06828125 -6.50328125 10.5271875 -7 11 C-7.33 9.68 -7.66 8.36 -8 7 C-7.01 6.67 -6.02 6.34 -5 6 C-4.67 5.01 -4.34 4.02 -4 3 C-1.9375 2.3125 -1.9375 2.3125 0 2 C0 1.34 0 0.68 0 0 Z " fill="#29A3C2" transform="translate(315,646)"/>
<path d="M0 0 C0 0.33 0 0.66 0 1 C-0.5053125 1.1340625 -0.5053125 1.1340625 -3.0625 1.8125 C-5.73499603 2.56600294 -8.2184767 3.4860844 -10.75 4.625 C-14 6 -14 6 -17 6 C-11.94288689 -0.56057917 -8.04733602 -0.77323157 0 0 Z " fill="#186577" transform="translate(350,624)"/>
<path d="M0 0 C1.32 0.66 2.64 1.32 4 2 C0.7 5.3 -2.6 8.6 -6 12 C-6.33 11.34 -6.66 10.68 -7 10 C-6.360625 9.236875 -5.72125 8.47375 -5.0625 7.6875 C-3 5 -3 5 -2 2 C-1.34 2 -0.68 2 0 2 C0 1.34 0 0.68 0 0 Z " fill="#2AB1C9" transform="translate(332,626)"/>
<path d="M0 0 C0.99 0 1.98 0 3 0 C1.53476111 3.41889073 0.04456257 5.8141602 -3 8 C-6.02941893 8.33485805 -8.96544826 8.23342706 -12 8 C-12 7.67 -12 7.34 -12 7 C-10.515 6.835 -10.515 6.835 -3 6 C-3 4.68 -3 3.36 -3 2 C-2.01 2 -1.02 2 0 2 C0 1.34 0 0.68 0 0 Z " fill="#1C766A" transform="translate(445,412)"/>
<path d="M0 0 C0.99 0.33 1.98 0.66 3 1 C-0.01887244 4.48331435 -2.56909529 5.79157144 -7 7 C-7 7.66 -7 8.32 -7 9 C-7.99 8.67 -8.98 8.34 -10 8 C-9.34 7.67 -8.68 7.34 -8 7 C-8 6.34 -8 5.68 -8 5 C-7.05125 4.54625 -6.1025 4.0925 -5.125 3.625 C-2 2 -2 2 0 0 Z " fill="#124F66" transform="translate(315,684)"/>
<path d="M0 0 C0.33 0 0.66 0 1 0 C1.33 6.93 1.66 13.86 2 21 C-1 18 -1 18 -1.2487793 16.00708008 C-1.21997681 15.63788452 -1.21997681 15.63788452 -1.07421875 13.76953125 C-1.01943359 12.96708984 -0.96464844 12.16464844 -0.90820312 11.33789062 C-0.83537109 10.50451172 -0.76253906 9.67113281 -0.6875 8.8125 C-0.62626953 7.96751953 -0.56503906 7.12253906 -0.50195312 6.25195312 C-0.34881209 4.16687905 -0.17625843 2.08324724 0 0 Z " fill="#043146" transform="translate(246,633)"/>
<path d="M0 0 C0 4.09939665 -1.52298101 5.78656995 -4 9 C-6.75 10.875 -6.75 10.875 -9 12 C-8.45015228 8.12488273 -6.72444669 6.40423494 -3.9375 3.75 C-3.20402344 3.04359375 -2.47054688 2.3371875 -1.71484375 1.609375 C-1.14894531 1.07828125 -0.58304687 0.5471875 0 0 Z " fill="#09303F" transform="translate(358,604)"/>
<path d="M0 0 C0.66 0.66 1.32 1.32 2 2 C1.06981474 3.46300982 0.13055973 4.92025579 -0.8125 6.375 C-1.33457031 7.18710937 -1.85664062 7.99921875 -2.39453125 8.8359375 C-4 11 -4 11 -7 13 C-6.39479338 9.6108429 -5.08699255 7.69569871 -3 5 C-2.67 4.01 -2.34 3.02 -2 2 C-1.34 2 -0.68 2 0 2 C0 1.34 0 0.68 0 0 Z " fill="#54DAB6" transform="translate(527,424)"/>
<path d="M0 0 C-5.57468542 3.61601216 -10.60567654 3.30720059 -17 3 C-14.08149788 1.05433192 -12.42377152 0.4847543 -9.0625 -0.1875 C-8.20785156 -0.36667969 -7.35320312 -0.54585938 -6.47265625 -0.73046875 C-3.98865141 -1.00123705 -2.35550498 -0.77059444 0 0 Z " fill="#1DA68F" transform="translate(382,416)"/>
<path d="M0 0 C0.66 0 1.32 0 2 0 C0.52278578 3.45201639 -1.43794001 5.64961936 -4.125 8.25 C-4.84945313 8.95640625 -5.57390625 9.6628125 -6.3203125 10.390625 C-6.87460937 10.92171875 -7.42890625 11.4528125 -8 12 C-8.33 11.01 -8.66 10.02 -9 9 C-8.01 8.67 -7.02 8.34 -6 8 C-6 7.34 -6 6.68 -6 6 C-5.34 6 -4.68 6 -4 6 C-3.34 4.68 -2.68 3.36 -2 2 C-1.34 2 -0.68 2 0 2 C0 1.34 0 0.68 0 0 Z " fill="#09363E" transform="translate(383,477)"/>
<path d="M0 0 C0.64453125 1.75 0.64453125 1.75 1 4 C0.07421875 6 0.07421875 6 -1.3125 8 C-3.08753907 10.60406877 -4.6454295 13.15095031 -6 16 C-6.66 15.67 -7.32 15.34 -8 15 C-6.85657478 12.68628057 -5.71038936 10.37400323 -4.5625 8.0625 C-4.23701172 7.40314453 -3.91152344 6.74378906 -3.57617188 6.06445312 C-1.11328125 1.11328125 -1.11328125 1.11328125 0 0 Z " fill="#1D3543" transform="translate(209,419)"/>
<path d="M0 0 C0.33 0 0.66 0 1 0 C1.57341412 5.6194584 0.5593358 8.36404155 -2.7109375 12.71484375 C-4 14 -4 14 -6 14 C-5.67 12.68 -5.34 11.36 -5 10 C-4.34 10 -3.68 10 -3 10 C-2.87625 9.46375 -2.7525 8.9275 -2.625 8.375 C-1.87793984 5.5361714 -0.94696636 2.77776798 0 0 Z " fill="#0A453B" transform="translate(489,361)"/>
<path d="M0 0 C2 1 2 1 2.9375 3.75 C3.288125 4.8225 3.63875 5.895 4 7 C4.556875 7.86625 5.11375 8.7325 5.6875 9.625 C7 12 7 12 6.58203125 14.1484375 C6.38996094 14.75945313 6.19789063 15.37046875 6 16 C5.66226563 15.28972656 5.32453125 14.57945312 4.9765625 13.84765625 C4.53054687 12.92855469 4.08453125 12.00945313 3.625 11.0625 C3.18414062 10.14597656 2.74328125 9.22945312 2.2890625 8.28515625 C1 6 1 6 -1 5 C-0.67 3.35 -0.34 1.7 0 0 Z " fill="#193F57" transform="translate(148,654)"/>
<path d="M0 0 C0.66 0.66 1.32 1.32 2 2 C0.07776117 7.1596937 -1.80186938 10.25572134 -6 14 C-4.50829734 9.0276578 -2.39542583 4.58154261 0 0 Z " fill="#1A3743" transform="translate(584,636)"/>
<path d="M0 0 C0 4.09089094 -1.69866948 5.44918487 -4.33203125 8.4140625 C-6.36890116 10.35075848 -8.29054445 11.28279118 -11 12 C-7.49102731 7.81576108 -3.91939465 3.80411834 0 0 Z " fill="#042328" transform="translate(478,481)"/>
<path d="M0 0 C4.29 0 8.58 0 13 0 C9.96474514 2.02350324 8.80573798 2.32124018 5.3125 2.625 C4.50425781 2.69976563 3.69601562 2.77453125 2.86328125 2.8515625 C2.24839844 2.90054688 1.63351562 2.94953125 1 3 C0.67 2.01 0.34 1.02 0 0 Z " fill="#188E95" transform="translate(400,625)"/>
<path d="M0 0 C1.32 0.33 2.64 0.66 4 1 C1.03 3.97 -1.94 6.94 -5 10 C-5 6.60406522 -4.47834052 5.93380119 -2.5 3.3125 C-2.0359375 2.68988281 -1.571875 2.06726563 -1.09375 1.42578125 C-0.7328125 0.95527344 -0.371875 0.48476563 0 0 Z " fill="#042227" transform="translate(398,460)"/>
<path d="M0 0 C0.33 0 0.66 0 1 0 C1 1.98 1 3.96 1 6 C0.34 6 -0.32 6 -1 6 C-1.103125 6.94875 -1.20625 7.8975 -1.3125 8.875 C-2 12 -2 12 -5 14 C-4.28269264 10.76834156 -3.18684926 7.81292078 -1.9375 4.75 C-1.57527344 3.85796875 -1.21304688 2.9659375 -0.83984375 2.046875 C-0.56269531 1.37140625 -0.28554687 0.6959375 0 0 Z " fill="#1C4F5B" transform="translate(150,418)"/>
<path d="M0 0 C0 3.39593478 -0.52165948 4.06619881 -2.5 6.6875 C-2.9640625 7.31011719 -3.428125 7.93273437 -3.90625 8.57421875 C-4.2671875 9.04472656 -4.628125 9.51523437 -5 10 C-6.32 9.67 -7.64 9.34 -9 9 C-6.03 6.03 -3.06 3.06 0 0 Z " fill="#32A5B3" transform="translate(329,535)"/>
<path d="M0 0 C0 3.60573896 -0.81707462 4.41336566 -3 7.1875 C-3.556875 7.90292969 -4.11375 8.61835937 -4.6875 9.35546875 C-5.120625 9.89816406 -5.55375 10.44085937 -6 11 C-6.66 10.67 -7.32 10.34 -8 10 C-6.34908222 5.70761377 -3.26245434 3.1206085 0 0 Z " fill="#071E22" transform="translate(445,515)"/>
<path d="M0 0 C0.93423645 3.01031744 1.04449911 3.86650268 0 7 C-0.66 7 -1.32 7 -2 7 C-2.28875 7.804375 -2.5775 8.60875 -2.875 9.4375 C-4 12 -4 12 -6 13 C-4.58707905 8.1725201 -2.57025846 4.2837641 0 0 Z " fill="#1C3F4A" transform="translate(166,387)"/>
<path d="M0 0 C3.04105488 1.52052744 4.71466648 2.48121179 6.375 5.5 C7 8 7 8 6 11 C4.9944239 9.54550599 3.99569565 8.08627557 3 6.625 C2.443125 5.81289063 1.88625 5.00078125 1.3125 4.1640625 C0 2 0 2 0 0 Z " fill="#1A3C50" transform="translate(159,679)"/>
<path d="M0 0 C0 3.16880694 -0.2058242 4.43689172 -2 7 C-4.625 7.75 -4.625 7.75 -7 8 C-6.02133662 6.85373678 -5.04205413 5.70800212 -4.0625 4.5625 C-3.51722656 3.92441406 -2.97195313 3.28632812 -2.41015625 2.62890625 C-1.63204305 1.73008851 -0.84063472 0.84063472 0 0 Z " fill="#0C343D" transform="translate(389,572)"/>
<path d="M0 0 C1.25127906 3.54667178 0.72285053 5.72253438 -0.4375 9.25 C-0.72496094 10.14203125 -1.01242188 11.0340625 -1.30859375 11.953125 C-1.53675781 12.62859375 -1.76492187 13.3040625 -2 14 C-2.33 14 -2.66 14 -3 14 C-3.34615998 8.34605369 -2.43425238 4.96993194 0 0 Z " fill="#1C4451" transform="translate(190,464)"/>
<path d="M0 0 C0.99 0.33 1.98 0.66 3 1 C2.01 1.33 1.02 1.66 0 2 C-1.0625 3.875 -1.0625 3.875 -2 6 C-2.33 6.495 -2.33 6.495 -4 9 C-4.66 9 -5.32 9 -6 9 C-4.68775452 5.06326356 -3.08089673 2.77280706 0 0 Z " fill="#146757" transform="translate(458,361)"/>
<path d="M0 0 C0.99 0.33 1.98 0.66 3 1 C1.7391988 2.03319813 0.46596742 3.05124379 -0.8125 4.0625 C-1.16634766 4.34673828 -1.16634766 4.34673828 -2.95703125 5.78515625 C-3.63121094 6.18605469 -4.30539062 6.58695313 -5 7 C-5.99 6.67 -6.98 6.34 -8 6 C-5.86284934 3.64913427 -3.8687097 2.3387312 -1 1 C-0.67 0.67 -0.34 0.34 0 0 Z " fill="#18818E" transform="translate(369,640)"/>
<path d="M0 0 C1.31344579 2.62689159 1.33302244 4.06940255 1 7 C-1 10.3125 -1 10.3125 -3 13 C-4.23593891 9.29218328 -3.5678132 8.32489747 -2.0625 4.8125 C-1.68222656 3.91144531 -1.30195312 3.01039063 -0.91015625 2.08203125 C-0.60980469 1.39496094 -0.30945313 0.70789063 0 0 Z " fill="#193B44" transform="translate(589,623)"/>
<path d="M0 0 C0.33 0.66 0.66 1.32 1 2 C-1.66666667 4.66666667 -4.33333333 7.33333333 -7 10 C-7.66 9.67 -8.32 9.34 -9 9 C-6.03 6.03 -3.06 3.06 0 0 Z " fill="#02292E" transform="translate(466,493)"/>
<path d="M0 0 C1.03719328 3.21456356 0.94068337 5.40925583 0.1875 8.6875 C0.01605469 9.47511719 -0.15539062 10.26273437 -0.33203125 11.07421875 C-1 13 -1 13 -3 14 C-2.48594831 9.03083364 -1.76615118 4.70973649 0 0 Z " fill="#1A4C5E" transform="translate(138,450)"/>
<path d="M0 0 C3.80984844 2.77079887 4.06840752 6.62868145 5 11 C4.01 10.67 3.02 10.34 2 10 C0.875 7.0625 0.875 7.0625 0 4 C-0.33 3.34 -0.66 2.68 -1 2 C-0.67 1.34 -0.34 0.68 0 0 Z " fill="#4CD1AD" transform="translate(527,379)"/>
<path d="M0 0 C0 3.21518097 -0.1621112 4.41024759 -2 7 C-5.125 8.25 -5.125 8.25 -8 9 C-7.04270084 7.87411986 -6.08412105 6.7493285 -5.125 5.625 C-4.59132813 4.99851562 -4.05765625 4.37203125 -3.5078125 3.7265625 C-2.38567993 2.44163349 -1.20628025 1.20628025 0 0 Z " fill="#0E735E" transform="translate(453,365)"/>
<path d="M0 0 C2.97 0 5.94 0 9 0 C8.505 0.495 8.505 0.495 6 3 C6.3125 5.6875 6.3125 5.6875 7 8 C6.401875 7.236875 5.80375 6.47375 5.1875 5.6875 C3 3 3 3 0 0 Z " fill="#52C4A7" transform="translate(483,351)"/>
<path d="M0 0 C0.99 0 1.98 0 3 0 C3 1.98 3 3.96 3 6 C2.01 6.33 1.02 6.66 0 7 C-1.125 2.25 -1.125 2.25 0 0 Z " fill="#1C1F28" transform="translate(424,904)"/>
<path d="M0 0 C0 0.99 0 1.98 0 3 C-2.8125 5.25 -2.8125 5.25 -6 7 C-6.99 6.67 -7.98 6.34 -9 6 C-6.03 4.02 -3.06 2.04 0 0 Z " fill="#2CB2C4" transform="translate(373,640)"/>
<path d="M0 0 C0.99 0.33 1.98 0.66 3 1 C-3.07439825 5.90153173 -3.07439825 5.90153173 -6.9375 6.3125 C-7.618125 6.209375 -8.29875 6.10625 -9 6 C-6.06171403 3.49701566 -3.82097239 2.53069061 0 2 C0 1.34 0 0.68 0 0 Z " fill="#26ADBB" transform="translate(387,632)"/>
<path d="M0 0 C0 0.66 0 1.32 0 2 C-2.91708924 3.98362069 -4.12380904 3.9876191 -7.75 3.625 C-8.8225 3.41875 -9.895 3.2125 -11 3 C-7.13828168 1.00255949 -4.44822596 0 0 0 Z " fill="#29B2BE" transform="translate(409,627)"/>
<path d="M0 0 C0.33 0.99 0.66 1.98 1 3 C-1.31 4.98 -3.62 6.96 -6 9 C-6.66 8.67 -7.32 8.34 -8 8 C-5.36 5.36 -2.72 2.72 0 0 Z " fill="#09333C" transform="translate(420,540)"/>
<path d="M0 0 C0.93065133 2.60582371 1.14917407 3.64198224 0.0625 6.25 C-0.1128125 6.53875 -0.1128125 6.53875 -1 8 C-1.66 7.67 -2.32 7.34 -3 7 C-2.25 2.25 -2.25 2.25 0 0 Z " fill="#2AB2C4" transform="translate(300,565)"/>
<path d="M0 0 C0.33 1.32 0.66 2.64 1 4 C-0.98 5.32 -2.96 6.64 -5 8 C-4.45773019 4.20411134 -2.79872437 2.52788007 0 0 Z " fill="#3BCCAD" transform="translate(463,397)"/>
<path d="M0 0 C3.3 0.99 6.6 1.98 10 3 C10 3.66 10 4.32 10 5 C9.01 5.33 8.02 5.66 7 6 C6.67 5.34 6.34 4.68 6 4 C4.02111039 3.27306096 2.02045442 2.60183749 0 2 C0 1.34 0 0.68 0 0 Z " fill="#4BD0AC" transform="translate(494,352)"/>
<path d="M0 0 C1.0725 0.53625 2.145 1.0725 3.25 1.625 C-0.75200378 3.22580151 -3.79556236 1.91779692 -7.75 0.625 C-4.61227723 -1.75966931 -3.83407554 -1.4058277 0 0 Z " fill="#2490B3" transform="translate(288.75,689.375)"/>
<path d="M0 0 C1.65 0 3.3 0 5 0 C5 0.66 5 1.32 5 2 C6.65 2.33 8.3 2.66 10 3 C10 3.66 10 4.32 10 5 C2.42857143 3.14285714 2.42857143 3.14285714 0 0 Z " fill="#2791B1" transform="translate(271,684)"/>
<path d="M0 0 C1.65 0 3.3 0 5 0 C3.63016497 3.16115776 3.0109362 3.9927092 0 6 C0 4.02 0 2.04 0 0 Z " fill="#2BABBB" transform="translate(338,619)"/>
<path d="M0 0 C0.99 0.33 1.98 0.66 3 1 C2.01 1.33 1.02 1.66 0 2 C0 1.34 0 0.68 0 0 Z M-3 3 C-2.01 3.33 -1.02 3.66 0 4 C-1.32 5.32 -2.64 6.64 -4 8 C-4.33 6.68 -4.66 5.36 -5 4 C-4.34 3.67 -3.68 3.34 -3 3 Z " fill="#1FAED1" transform="translate(260,609)"/>
<path d="M0 0 C0.66 0.66 1.32 1.32 2 2 C0.845 2.99 0.845 2.99 -5 8 C-4 4 -4 4 -3 2 C-2.01 2 -1.02 2 0 2 C0 1.34 0 0.68 0 0 Z " fill="#31B6C4" transform="translate(358,601)"/>
<path d="M0 0 C0.33 0.66 0.66 1.32 1 2 C-0.61594832 4.04119788 -2.2856382 6.04072937 -4 8 C-4.66 8 -5.32 8 -6 8 C-4.55746343 4.63408134 -2.66735273 2.48952921 0 0 Z " fill="#148471" transform="translate(433,383)"/>
<path d="M0 0 C0.99 0.33 1.98 0.66 3 1 C0.69 3.31 -1.62 5.62 -4 8 C-4.33 7.01 -4.66 6.02 -5 5 C-3.35 3.35 -1.7 1.7 0 0 Z " fill="#2EB2CC" transform="translate(322,638)"/>
<path d="M0 0 C0.99 0.33 1.98 0.66 3 1 C1.845 1.99 1.845 1.99 -4 7 C-4 5.68 -4 4.36 -4 3 C-2.68 2.67 -1.36 2.34 0 2 C0 1.34 0 0.68 0 0 Z " fill="#073143" transform="translate(277,586)"/>
<path d="M0 0 C0.66 0.33 1.32 0.66 2 1 C-0.83430453 4.2542015 -2.68607774 5.5206753 -7 6 C-5.01180815 3.01771223 -3.42353587 1.21480305 0 0 Z " fill="#2EB0B8" transform="translate(355,510)"/>
<path d="M0 0 C0.625 1.875 0.625 1.875 1 4 C0.34 4.66 -0.32 5.32 -1 6 C-3.125 5.625 -3.125 5.625 -5 5 C-3.35 3.35 -1.7 1.7 0 0 Z " fill="#3BBAB7" transform="translate(399,463)"/>
<path d="M0 0 C-0.375 1.9375 -0.375 1.9375 -1 4 C-1.33 4.165 -1.33 4.165 -3 5 C-3.99 4.34 -4.98 3.68 -6 3 C-3.375 0 -3.375 0 0 0 Z " fill="#36BFB1" transform="translate(431,433)"/>
<path d="M0 0 C2.6875 -0.3125 2.6875 -0.3125 5 0 C2.47211993 2.79872437 0.79588866 4.45773019 -3 5 C-1.8125 2.5 -1.8125 2.5 0 0 Z " fill="#3BD6BA" transform="translate(414,395)"/>
<path d="M0 0 C0.33 0.66 0.66 1.32 1 2 C-0.32 3.65 -1.64 5.3 -3 7 C-3.99 6.67 -4.98 6.34 -6 6 C-4.02 4.02 -2.04 2.04 0 0 Z " fill="#05232B" transform="translate(433,527)"/>
<path d="M0 0 C0.99 0.33 1.98 0.66 3 1 C1.35 2.65 -0.3 4.3 -2 6 C-1.125 1.125 -1.125 1.125 0 0 Z " fill="#0D282F" transform="translate(448,511)"/>
<path d="M0 0 C3.29679683 3.29679683 4 5.28312744 4 10 C3.34 10 2.68 10 2 10 C1.34 6.7 0.68 3.4 0 0 Z " fill="#1C4545" transform="translate(647,456)"/>
<path d="M0 0 C0.33 0.99 0.66 1.98 1 3 C-0.65 4.32 -2.3 5.64 -4 7 C-4.66 6.67 -5.32 6.34 -6 6 C-4.02 4.02 -2.04 2.04 0 0 Z " fill="#052A2D" transform="translate(506,452)"/>
<path d="M0 0 C0.66 0 1.32 0 2 0 C3.625 3.25 3.625 3.25 5 7 C4.34 8.32 3.68 9.64 3 11 C2.01 7.37 1.02 3.74 0 0 Z " fill="#052F2B" transform="translate(529,381)"/>
<path d="M0 0 C3.26460973 1.80412643 4.88929795 2.83394693 7 6 C6.01 6 5.02 6 4 6 C4 5.34 4 4.68 4 4 C2.35 3.67 0.7 3.34 -1 3 C-0.67 2.01 -0.34 1.02 0 0 Z " fill="#52D5AF" transform="translate(512,361)"/>
</svg>
