<svg xmlns="http://www.w3.org/2000/svg" width="832" height="1248" viewBox="0 0 832 1248">
<g>
<path d="M 0.00 0.00 L 832.00 0.00 L 832.00 1248.00 L 0.00 1248.00 ZM 390.85 922.25 C393.03,924.62 394.15,925.00 398.96,925.00 C416.53,925.00 448.81,918.18 471.00,909.79 C511.56,894.45 537.87,878.34 540.68,867.13 C541.10,865.48 539.58,859.42 536.17,849.07 C530.75,832.64 527.10,819.41 524.57,807.00 C520.17,785.46 517.03,754.31 517.01,732.13 C517.00,717.61 519.63,688.04 521.53,681.37 C523.26,675.27 524.34,674.48 537.00,670.01 C548.21,666.05 556.22,662.58 568.50,656.33 C576.92,652.04 579.83,650.25 594.00,640.60 C601.89,635.23 621.01,618.84 627.25,612.10 C644.01,594.00 660.13,567.45 666.78,547.00 C673.68,525.78 675.35,513.70 674.77,489.16 C674.39,473.38 673.91,468.84 671.68,459.76 C664.65,431.13 653.88,408.72 638.15,390.00 C629.36,379.55 626.06,376.00 625.12,376.00 C624.24,376.00 598.85,382.68 596.00,383.66 C595.08,383.98 597.61,385.78 602.55,388.34 C614.06,394.29 621.42,399.71 630.12,408.66 C640.44,419.28 647.05,428.41 652.35,439.34 C661.14,457.46 664.29,471.06 664.33,491.00 C664.40,535.24 639.66,575.72 600.60,595.25 C569.92,610.60 537.35,612.56 505.91,600.97 C493.75,596.48 479.37,588.70 471.71,582.46 C465.35,577.29 463.00,576.44 463.00,579.33 C463.00,581.90 447.87,614.47 444.16,619.89 C443.46,620.92 440.83,616.55 434.18,603.30 C429.21,593.41 423.84,582.88 422.23,579.91 C420.63,576.93 418.77,573.46 418.09,572.20 C416.88,569.91 416.83,569.93 410.64,575.70 C393.74,591.43 377.78,600.42 357.00,605.91 C315.49,616.87 270.91,604.35 240.27,573.13 C225.17,557.75 213.31,536.95 208.90,518.11 C205.97,505.61 205.30,485.12 207.42,473.00 C213.93,435.81 237.68,403.45 269.62,388.28 C273.69,386.35 277.23,384.43 277.48,384.03 C277.74,383.62 274.47,382.50 270.22,381.53 C265.97,380.57 258.70,378.62 254.06,377.21 L 245.62 374.64 L 240.70 380.07 C219.32,403.69 206.12,429.40 198.35,462.50 C195.73,473.67 195.54,475.88 195.63,494.50 C195.72,511.89 196.07,516.13 198.32,527.02 C204.61,557.38 219.43,585.74 241.49,609.63 C265.38,635.51 296.69,653.34 346.50,669.44 C353.65,671.76 361.41,674.85 363.74,676.33 C372.51,681.88 375.97,691.03 375.99,708.72 C376.02,737.70 366.85,776.52 353.18,805.27 C337.42,838.40 311.85,871.13 285.50,891.88 C281.10,895.35 277.50,898.68 277.50,899.30 C277.50,901.85 295.08,913.20 307.54,918.70 C318.40,923.49 318.72,923.45 322.91,916.71 C328.38,907.89 333.82,906.00 353.76,906.00 C374.86,906.00 381.44,907.99 386.09,915.77 C387.31,917.82 389.46,920.74 390.85,922.25 ZM 155.88 925.25 C155.95,925.66 157.24,925.99 158.75,925.99 C161.94,925.98 180.74,922.60 186.25,921.05 C188.31,920.47 191.46,919.58 193.25,919.07 C217.00,912.27 246.70,896.99 268.00,880.61 C288.69,864.70 305.12,847.10 319.62,825.33 C342.44,791.05 355.98,747.94 356.00,709.47 C356.00,708.80 356.00,708.16 356.00,707.54 C356.02,701.62 356.03,698.14 354.50,695.56 C352.14,691.60 346.12,689.81 330.83,684.66 C304.31,675.72 283.46,666.02 264.34,653.70 C255.56,648.04 238.92,634.64 232.54,628.09 C229.81,625.29 226.85,623.00 225.96,623.00 C223.69,623.00 215.50,633.32 211.98,640.61 C208.32,648.20 207.33,652.55 197.49,704.50 C195.51,714.95 191.45,736.10 188.47,751.50 C183.03,779.62 176.59,813.07 166.45,866.00 C156.03,920.34 155.55,923.05 155.88,925.25 ZM 438.00 506.81 C438.00,515.30 439.59,514.61 440.43,505.75 C443.32,475.43 453.21,448.73 469.57,427.06 C486.99,403.98 504.98,390.22 530.94,380.10 C546.17,374.16 555.60,371.72 611.00,359.39 C639.44,353.06 652.47,341.32 664.58,311.12 C670.31,296.83 671.67,285.23 669.27,271.25 C668.96,269.47 667.37,270.26 666.26,272.75 C662.36,281.49 647.92,294.33 634.00,301.43 C615.81,310.72 591.79,316.58 558.00,319.97 C544.13,321.36 523.17,321.47 519.85,320.17 C515.21,318.34 497.30,314.07 483.18,311.41 C458.43,306.75 415.69,307.05 386.00,312.10 C379.67,313.18 367.98,315.65 360.00,317.60 C347.35,320.69 343.97,321.14 333.50,321.09 C302.99,320.94 259.14,312.07 238.63,301.90 C224.44,294.86 211.38,283.71 205.65,273.76 C204.47,271.70 203.11,270.01 202.64,270.01 C202.17,270.00 201.98,276.64 202.22,284.75 C202.70,301.13 203.37,303.47 213.46,324.10 C219.40,336.24 229.62,346.88 240.50,352.25 C247.94,355.92 265.84,361.07 285.00,365.04 C290.77,366.24 300.67,368.31 307.00,369.65 C313.33,370.99 320.98,372.53 324.00,373.08 C336.94,375.44 361.36,385.28 373.00,392.83 C380.09,397.43 392.23,407.50 398.11,413.67 C413.77,430.07 425.94,452.51 432.76,477.56 C436.69,492.03 438.00,499.32 438.00,506.81 ZM 314.50 589.99 C328.85,591.98 352.47,588.29 367.50,581.70 C381.37,575.62 391.90,567.92 402.62,556.02 L 409.00 548.93 L 409.00 541.43 C409.00,532.61 410.41,528.71 415.74,522.81 L 419.63 518.50 L 418.42 506.72 C416.46,487.57 412.82,474.59 404.85,458.24 C396.98,442.11 389.56,431.63 378.66,421.29 C368.11,411.26 356.71,404.46 341.00,398.82 C333.82,396.24 317.86,395.35 307.08,396.93 C279.16,401.01 256.58,415.30 241.37,438.50 C230.51,455.08 225.80,471.09 225.78,491.50 C225.76,518.46 236.15,542.41 256.13,561.50 C267.61,572.47 285.38,583.22 297.00,586.21 C298.92,586.71 302.30,587.57 304.50,588.13 C306.70,588.69 311.20,589.53 314.50,589.99 ZM 533.00 588.35 C538.40,589.16 555.83,588.93 561.79,587.96 C591.12,583.21 618.59,564.13 632.32,539.00 C646.98,512.15 648.94,481.31 637.72,454.00 C634.37,445.85 626.36,432.76 620.94,426.58 C614.75,419.54 601.79,409.93 592.35,405.40 C579.59,399.28 570.01,396.92 555.34,396.29 L 543.18 395.76 L 531.49 401.05 C516.31,407.91 509.89,412.14 499.37,422.23 C485.44,435.59 477.27,447.57 470.06,465.23 C462.41,483.96 456.81,515.30 460.72,517.50 C465.49,520.18 471.59,527.74 473.48,533.30 L 475.45 539.10 L 473.31 547.30 L 471.18 555.50 L 475.84 560.32 C488.72,573.65 512.35,585.24 533.00,588.35 ZM 560.34 855.78 C561.46,857.28 562.62,856.33 573.11,845.45 C593.33,824.45 609.95,798.33 621.74,769.00 C630.13,748.13 634.38,732.66 638.62,707.50 C640.67,695.36 641.56,659.92 640.09,649.00 C638.41,636.54 637.40,631.07 636.63,630.30 C636.25,629.92 632.92,632.56 629.22,636.17 C608.24,656.63 579.56,674.83 551.53,685.47 C545.03,687.93 539.60,690.07 539.45,690.22 C539.30,690.38 538.63,697.61 537.95,706.30 C535.69,735.39 537.70,771.86 543.02,798.16 C547.34,819.55 556.83,851.11 560.34,855.78 ZM 524.24 983.79 C532.06,987.79 539.43,986.23 544.57,979.49 C549.31,973.29 548.69,962.97 543.20,956.42 C539.98,952.58 532.93,948.15 525.69,945.41 C519.69,943.14 517.40,941.55 511.91,935.86 C508.28,932.10 503.68,928.35 501.69,927.51 C495.93,925.11 481.94,925.53 473.93,928.36 C461.07,932.90 436.62,952.56 434.01,960.46 C432.36,965.48 433.14,973.98 435.57,977.24 C438.70,981.46 444.95,985.00 449.25,985.00 C454.64,985.00 458.57,982.69 465.50,975.43 C473.09,967.47 478.82,965.48 491.96,966.23 C502.94,966.86 510.30,970.12 516.00,976.88 C518.19,979.48 521.90,982.60 524.24,983.79 ZM 302.39 984.10 C309.28,988.30 318.96,985.55 325.53,977.53 C331.15,970.67 339.63,966.88 350.72,966.26 C363.56,965.55 369.54,967.83 377.50,976.45 C383.80,983.27 386.86,985.00 392.61,985.00 C396.81,985.00 400.57,983.16 404.19,979.34 C411.61,971.49 410.24,960.43 400.73,951.33 C392.55,943.50 378.43,932.85 372.08,929.72 C366.50,926.97 364.38,926.51 355.93,926.17 C343.06,925.65 340.14,926.72 331.47,935.11 C325.92,940.48 322.39,942.86 314.75,946.41 C298.75,953.84 293.09,960.70 294.33,971.17 C294.99,976.74 297.85,981.33 302.39,984.10 ZM 369.52 530.26 C366.83,531.65 363.02,532.45 358.00,532.70 C351.73,533.01 349.54,532.67 344.63,530.60 C333.52,525.91 324.58,516.15 321.32,505.12 C318.82,496.65 319.07,482.25 321.89,473.50 C324.66,464.87 327.57,460.31 333.29,455.62 C337.67,452.03 340.23,450.81 338.17,453.30 C337.57,454.01 336.78,456.50 336.41,458.81 C335.00,467.65 342.30,478.03 350.96,479.49 C356.70,480.46 363.21,479.34 367.10,476.70 C371.04,474.03 375.00,466.88 375.00,462.43 C375.00,457.78 371.75,450.81 368.17,447.80 C364.66,444.84 356.21,442.51 352.03,443.34 C350.01,443.75 349.01,443.47 348.59,442.38 C347.51,439.57 347.97,439.00 351.32,439.00 C359.23,439.00 372.95,445.97 379.91,453.52 C387.84,462.12 392.66,476.94 391.63,489.55 C391.08,496.31 387.38,509.31 384.27,515.41 C381.97,519.92 373.98,527.97 369.52,530.26 ZM 530.65 529.65 C524.28,532.91 514.28,533.68 508.00,531.40 C493.29,526.04 483.33,510.61 482.26,491.50 C481.38,475.78 485.67,463.32 494.98,454.62 C501.45,448.56 504.79,448.25 501.50,454.00 C499.44,457.60 499.65,465.39 501.92,469.85 C503.99,473.90 509.78,478.45 514.26,479.55 C527.04,482.67 539.15,470.01 536.08,456.75 C534.93,451.79 536.29,451.90 541.17,457.18 C549.24,465.92 552.53,476.91 551.72,492.44 C550.83,509.65 543.12,523.27 530.65,529.65 ZM 321.00 561.96 C321.00,562.59 317.99,563.00 313.35,563.00 C305.71,563.00 305.68,562.99 301.88,558.99 C297.52,554.41 291.28,545.46 288.15,539.31 C284.62,532.36 279.26,514.99 278.09,506.71 C273.99,477.49 283.21,444.69 300.85,425.75 L 305.27 421.00 L 313.64 421.00 C318.24,421.00 322.00,421.41 322.00,421.92 C322.00,422.42 321.61,422.98 321.13,423.17 C319.32,423.86 308.21,442.01 305.55,448.62 C297.54,468.57 295.11,492.32 298.98,513.00 C301.73,527.66 308.78,544.20 317.19,555.71 C319.29,558.57 321.00,561.38 321.00,561.96 ZM 569.76 558.25 L 565.81 563.00 L 557.91 563.00 C553.56,563.00 550.00,562.79 550.00,562.53 C550.00,562.28 552.42,558.34 555.38,553.78 C564.41,539.87 568.36,530.15 572.15,512.50 C573.80,504.79 573.79,477.41 572.13,469.50 C568.41,451.82 562.14,438.04 551.76,424.75 L 548.83 421.00 L 565.73 421.00 L 570.15 425.75 C590.30,447.36 598.49,482.78 591.05,516.18 C587.59,531.72 581.01,544.74 569.76,558.25 ZM 443.09 581.17 C443.69,582.30 444.52,582.83 444.94,582.36 C445.97,581.18 455.56,558.31 456.83,554.00 C458.93,546.88 459.17,542.34 457.64,538.69 C452.85,527.23 427.00,529.03 427.00,540.83 C427.00,542.90 430.27,550.99 437.38,566.50 C439.90,572.00 441.98,577.09 441.98,577.82 C441.99,578.54 442.49,580.05 443.09,581.17 ZM 269.66 981.54 C274.19,983.16 279.63,983.40 280.48,982.03 C280.81,981.50 280.39,979.72 279.54,978.08 C277.31,973.77 277.53,961.64 279.92,956.36 C282.71,950.23 288.02,944.89 297.26,938.92 C301.79,935.99 305.69,933.46 305.92,933.30 C309.87,930.49 278.42,936.24 272.03,939.50 C263.92,943.62 259.17,951.05 258.27,960.98 C257.34,971.24 261.42,978.60 269.66,981.54 ZM 561.00 982.52 C561.00,983.43 568.87,983.00 571.68,981.94 C575.52,980.49 579.96,976.17 581.62,972.28 C583.77,967.27 583.39,956.70 580.89,951.71 C578.18,946.30 573.48,941.33 568.78,938.91 C563.16,936.01 534.96,931.53 536.35,933.75 C536.61,934.16 539.41,935.85 542.58,937.50 C550.43,941.59 557.59,948.26 560.71,954.39 C564.11,961.06 565.00,972.04 562.63,977.97 C561.73,980.21 561.00,982.26 561.00,982.52 Z" fill="rgb(38,56,69)"/>
<path d="M 438.00 506.81 C438.00,499.32 436.69,492.03 432.76,477.56 C431.48,472.87 430.01,468.26 428.37,463.77 C432.17,473.97 435.11,484.73 437.05,495.75 C437.75,499.74 438.82,503.00 439.44,503.00 C439.98,503.00 440.90,499.83 441.76,495.11 C441.22,498.60 440.78,502.15 440.43,505.75 C439.59,514.61 438.00,515.30 438.00,506.81 ZM 442.45 490.96 C444.10,481.02 446.79,471.25 450.44,461.85 C446.94,471.04 444.27,480.77 442.45,490.96 ZM 494.64 400.61 C505.14,392.08 516.47,385.74 530.94,380.10 C516.90,385.57 505.19,392.11 494.64,400.61 ZM 469.62 426.99 C473.40,421.86 477.52,416.97 481.95,412.36 C477.74,416.78 473.67,421.63 469.62,426.99 Z" fill="rgb(82,126,135)"/>
<path d="M 302.39 984.10 C297.85,981.33 294.99,976.74 294.33,971.17 C293.09,960.70 298.75,953.84 314.75,946.41 C322.39,942.86 325.92,940.48 331.47,935.11 C340.14,926.72 343.06,925.65 355.93,926.17 C364.38,926.51 366.50,926.97 372.08,929.72 C378.43,932.85 392.55,943.50 400.73,951.33 C410.24,960.43 411.61,971.49 404.19,979.34 C400.57,983.16 396.81,985.00 392.61,985.00 C386.86,985.00 383.80,983.27 377.50,976.45 C369.54,967.83 363.56,965.55 350.72,966.26 C339.63,966.88 331.15,970.67 325.53,977.53 C318.96,985.55 309.28,988.30 302.39,984.10 ZM 524.24 983.79 C521.90,982.60 518.19,979.48 516.00,976.88 C510.30,970.12 502.94,966.86 491.96,966.23 C478.82,965.48 473.09,967.47 465.50,975.43 C458.57,982.69 454.64,985.00 449.25,985.00 C444.95,985.00 438.70,981.46 435.57,977.24 C433.14,973.98 432.36,965.48 434.01,960.46 C436.62,952.56 461.07,932.90 473.93,928.36 C481.94,925.53 495.93,925.11 501.69,927.51 C503.68,928.35 508.28,932.10 511.91,935.86 C517.40,941.55 519.69,943.14 525.69,945.41 C532.93,948.15 539.98,952.58 543.20,956.42 C548.69,962.97 549.31,973.29 544.57,979.49 C539.43,986.23 532.06,987.79 524.24,983.79 ZM 269.66 981.54 C261.42,978.60 257.34,971.24 258.27,960.98 C259.17,951.05 263.92,943.62 272.03,939.50 C278.42,936.24 309.87,930.49 305.92,933.30 C305.69,933.46 301.79,935.99 297.26,938.92 C288.02,944.89 282.71,950.23 279.92,956.36 C277.53,961.64 277.31,973.77 279.54,978.08 C280.39,979.72 280.81,981.50 280.48,982.03 C279.63,983.40 274.19,983.16 269.66,981.54 ZM 561.00 982.52 C561.00,982.26 561.73,980.21 562.63,977.97 C565.00,972.04 564.11,961.06 560.71,954.39 C557.59,948.26 550.43,941.59 542.58,937.50 C539.41,935.85 536.61,934.16 536.35,933.75 C534.96,931.53 563.16,936.01 568.78,938.91 C573.48,941.33 578.18,946.30 580.89,951.71 C583.39,956.70 583.77,967.27 581.62,972.28 C579.96,976.17 575.52,980.49 571.68,981.94 C568.87,983.00 561.00,983.43 561.00,982.52 ZM 155.88 925.25 C155.55,923.05 156.03,920.34 166.45,866.00 C176.59,813.07 183.03,779.62 188.47,751.50 C191.45,736.10 195.51,714.95 197.49,704.50 C207.33,652.55 208.32,648.20 211.98,640.61 C215.50,633.32 223.69,623.00 225.96,623.00 C226.85,623.00 229.81,625.29 232.54,628.09 C238.92,634.64 255.56,648.04 264.34,653.70 C283.46,666.02 304.31,675.72 330.83,684.66 C357.08,693.50 356.00,692.44 356.00,709.47 C355.98,747.94 342.44,791.05 319.62,825.33 C305.12,847.10 288.69,864.70 268.00,880.61 C246.70,896.99 217.00,912.27 193.25,919.07 C191.46,919.58 188.31,920.47 186.25,921.05 C180.74,922.60 161.94,925.98 158.75,925.99 C157.24,925.99 155.95,925.66 155.88,925.25 ZM 390.85 922.25 C389.46,920.74 387.31,917.82 386.09,915.77 C381.44,907.99 374.86,906.00 353.76,906.00 C333.82,906.00 328.38,907.89 322.91,916.71 C318.72,923.45 318.40,923.49 307.54,918.70 C295.08,913.20 277.50,901.85 277.50,899.30 C277.50,898.68 281.10,895.35 285.50,891.88 C311.85,871.13 337.42,838.40 353.18,805.27 C366.85,776.52 376.02,737.70 375.99,708.72 C375.97,691.03 372.51,681.88 363.74,676.33 C361.41,674.85 353.65,671.76 346.50,669.44 C296.69,653.34 265.38,635.51 241.49,609.63 C219.43,585.74 204.61,557.38 198.32,527.02 C196.07,516.13 195.72,511.89 195.63,494.50 C195.54,475.88 195.73,473.67 198.35,462.50 C206.12,429.40 219.32,403.69 240.70,380.07 L 245.62 374.64 L 254.06 377.21 C258.70,378.62 265.97,380.57 270.22,381.53 C274.47,382.50 277.74,383.62 277.48,384.03 C277.23,384.43 273.69,386.35 269.62,388.28 C237.68,403.45 213.93,435.81 207.42,473.00 C205.30,485.12 205.97,505.61 208.90,518.11 C213.31,536.95 225.17,557.75 240.27,573.13 C270.91,604.35 315.49,616.87 357.00,605.91 C377.78,600.42 393.74,591.43 410.64,575.70 C416.83,569.93 416.88,569.91 418.09,572.20 C418.77,573.46 420.63,576.93 422.23,579.91 C423.84,582.88 429.21,593.41 434.18,603.30 C440.83,616.55 443.46,620.92 444.16,619.89 C447.87,614.47 463.00,581.90 463.00,579.33 C463.00,576.44 465.35,577.29 471.71,582.46 C479.37,588.70 493.75,596.48 505.91,600.97 C537.35,612.56 569.92,610.60 600.60,595.25 C639.66,575.72 664.40,535.24 664.33,491.00 C664.29,471.06 661.14,457.46 652.35,439.34 C647.05,428.41 640.44,419.28 630.12,408.66 C621.42,399.71 614.06,394.29 602.55,388.34 C597.61,385.78 595.08,383.98 596.00,383.66 C598.85,382.68 624.24,376.00 625.12,376.00 C626.06,376.00 629.36,379.55 638.15,390.00 C653.88,408.72 664.65,431.13 671.68,459.76 C673.91,468.84 674.39,473.38 674.77,489.16 C675.35,513.70 673.68,525.78 666.78,547.00 C660.13,567.45 644.01,594.00 627.25,612.10 C621.01,618.84 601.89,635.23 594.00,640.60 C579.83,650.25 576.92,652.04 568.50,656.33 C556.22,662.58 548.21,666.05 537.00,670.01 C524.34,674.48 523.26,675.27 521.53,681.37 C519.63,688.04 517.00,717.61 517.01,732.13 C517.03,754.31 520.17,785.46 524.57,807.00 C527.10,819.41 530.75,832.64 536.17,849.07 C539.58,859.42 541.10,865.48 540.68,867.13 C537.87,878.34 511.56,894.45 471.00,909.79 C448.81,918.18 416.53,925.00 398.96,925.00 C394.15,925.00 393.03,924.62 390.85,922.25 ZM 560.34 855.78 C556.83,851.11 547.34,819.55 543.02,798.16 C537.70,771.86 535.69,735.39 537.95,706.30 C538.63,697.61 539.30,690.38 539.45,690.22 C539.60,690.07 545.03,687.93 551.53,685.47 C579.56,674.83 608.24,656.63 629.22,636.17 C632.92,632.56 636.25,629.92 636.63,630.30 C637.40,631.07 638.41,636.54 640.09,649.00 C641.56,659.92 640.67,695.36 638.62,707.50 C634.38,732.66 630.13,748.13 621.74,769.00 C609.95,798.33 593.33,824.45 573.11,845.45 C562.62,856.33 561.46,857.28 560.34,855.78 ZM 314.50 589.99 C311.20,589.53 306.70,588.69 304.50,588.13 C302.30,587.57 298.92,586.71 297.00,586.21 C285.38,583.22 267.61,572.47 256.13,561.50 C236.15,542.41 225.76,518.46 225.78,491.50 C225.80,471.09 230.51,455.08 241.37,438.50 C256.58,415.30 279.16,401.01 307.08,396.93 C317.86,395.35 333.82,396.24 341.00,398.82 C356.71,404.46 368.11,411.26 378.66,421.29 C389.56,431.63 396.98,442.11 404.85,458.24 C412.82,474.59 416.46,487.57 418.42,506.72 L 419.63 518.50 L 415.74 522.81 C410.41,528.71 409.00,532.61 409.00,541.43 L 409.00 548.93 L 402.62 556.02 C391.90,567.92 381.37,575.62 367.50,581.70 C352.47,588.29 328.85,591.98 314.50,589.99 ZM 321.00 561.96 C321.00,561.38 319.29,558.57 317.19,555.71 C308.78,544.20 301.73,527.66 298.98,513.00 C295.11,492.32 297.54,468.57 305.55,448.62 C308.21,442.01 319.32,423.86 321.13,423.17 C321.61,422.98 322.00,422.42 322.00,421.92 C322.00,421.41 318.24,421.00 313.64,421.00 L 305.27 421.00 L 300.85 425.75 C283.21,444.69 273.99,477.49 278.09,506.71 C279.26,514.99 284.62,532.36 288.15,539.31 C291.28,545.46 297.52,554.41 301.88,558.99 C305.68,562.99 305.71,563.00 313.35,563.00 C317.99,563.00 321.00,562.59 321.00,561.96 ZM 369.52 530.26 C373.98,527.97 381.97,519.92 384.27,515.41 C387.38,509.31 391.08,496.31 391.63,489.55 C392.66,476.94 387.84,462.12 379.91,453.52 C372.95,445.97 359.23,439.00 351.32,439.00 C347.97,439.00 347.51,439.57 348.59,442.38 C349.01,443.47 350.01,443.75 352.03,443.34 C356.21,442.51 364.66,444.84 368.17,447.80 C371.75,450.81 375.00,457.78 375.00,462.43 C375.00,466.88 371.04,474.03 367.10,476.70 C363.21,479.34 356.70,480.46 350.96,479.49 C342.30,478.03 335.00,467.65 336.41,458.81 C336.78,456.50 337.57,454.01 338.17,453.30 C340.23,450.81 337.67,452.03 333.29,455.62 C327.57,460.31 324.66,464.87 321.89,473.50 C319.07,482.25 318.82,496.65 321.32,505.12 C324.58,516.15 333.52,525.91 344.63,530.60 C349.54,532.67 351.73,533.01 358.00,532.70 C363.02,532.45 366.83,531.65 369.52,530.26 ZM 533.00 588.35 C512.35,585.24 488.72,573.65 475.84,560.32 L 471.18 555.50 L 473.31 547.30 L 475.45 539.10 L 473.48 533.30 C471.59,527.74 465.49,520.18 460.72,517.50 C456.81,515.30 462.41,483.96 470.06,465.23 C477.27,447.57 485.44,435.59 499.37,422.23 C509.89,412.14 516.31,407.91 531.49,401.05 L 543.18 395.76 L 555.34 396.29 C570.01,396.92 579.59,399.28 592.35,405.40 C601.79,409.93 614.75,419.54 620.94,426.58 C626.36,432.76 634.37,445.85 637.72,454.00 C648.94,481.31 646.98,512.15 632.32,539.00 C618.59,564.13 591.12,583.21 561.79,587.96 C555.83,588.93 538.40,589.16 533.00,588.35 ZM 569.76 558.25 C581.01,544.74 587.59,531.72 591.05,516.18 C598.49,482.78 590.30,447.36 570.15,425.75 L 565.73 421.00 L 557.28 421.00 L 548.83 421.00 L 551.76 424.75 C562.14,438.04 568.41,451.82 572.13,469.50 C573.79,477.41 573.80,504.79 572.15,512.50 C568.36,530.15 564.41,539.87 555.38,553.78 C552.42,558.34 550.00,562.28 550.00,562.53 C550.00,562.79 553.56,563.00 557.91,563.00 L 565.81 563.00 L 569.76 558.25 ZM 530.65 529.65 C543.12,523.27 550.83,509.65 551.72,492.44 C552.53,476.91 549.24,465.92 541.17,457.18 C536.29,451.90 534.93,451.79 536.08,456.75 C539.15,470.01 527.04,482.67 514.26,479.55 C509.78,478.45 503.99,473.90 501.92,469.85 C499.65,465.39 499.44,457.60 501.50,454.00 C504.79,448.25 501.45,448.56 494.98,454.62 C485.67,463.32 481.38,475.78 482.26,491.50 C483.33,510.61 493.29,526.04 508.00,531.40 C514.28,533.68 524.28,532.91 530.65,529.65 ZM 443.09 581.17 C442.49,580.05 441.99,578.54 441.98,577.82 C441.98,577.09 439.90,572.00 437.38,566.50 C430.27,550.99 427.00,542.90 427.00,540.83 C427.00,529.03 452.85,527.23 457.64,538.69 C459.17,542.34 458.93,546.88 456.83,554.00 C455.56,558.31 445.97,581.18 444.94,582.36 C444.52,582.83 443.69,582.30 443.09,581.17 ZM 437.05 495.75 C431.41,463.63 417.19,433.66 398.11,413.67 C392.23,407.50 380.09,397.43 373.00,392.83 C361.36,385.28 336.94,375.44 324.00,373.08 C320.98,372.53 313.33,370.99 307.00,369.65 C300.67,368.31 290.77,366.24 285.00,365.04 C265.84,361.07 247.94,355.92 240.50,352.25 C229.62,346.88 219.40,336.24 213.46,324.10 C203.37,303.47 202.70,301.13 202.22,284.75 C201.98,276.64 202.17,270.00 202.64,270.01 C203.11,270.01 204.47,271.70 205.65,273.76 C211.38,283.71 224.44,294.86 238.63,301.90 C259.14,312.07 302.99,320.94 333.50,321.09 C343.97,321.14 347.35,320.69 360.00,317.60 C367.98,315.65 379.67,313.18 386.00,312.10 C415.69,307.05 458.43,306.75 483.18,311.41 C497.30,314.07 515.21,318.34 519.85,320.17 C523.17,321.47 544.13,321.36 558.00,319.97 C591.79,316.58 615.81,310.72 634.00,301.43 C647.92,294.33 662.36,281.49 666.26,272.75 C667.37,270.26 668.96,269.47 669.27,271.25 C671.67,285.23 670.31,296.83 664.58,311.12 C652.47,341.32 639.44,353.06 611.00,359.39 C555.60,371.72 546.17,374.16 530.94,380.10 C511.44,387.70 497.63,396.58 483.87,410.39 C461.81,432.52 447.05,461.55 442.24,492.25 C441.26,498.50 440.09,503.00 439.44,503.00 C438.82,503.00 437.75,499.74 437.05,495.75 Z" fill="rgb(107,172,176)"/>
</g>
</svg>