<?xml version="1.0" encoding="UTF-8" standalone="no"?>
<svg
   width="574.99622"
   height="772.08954"
   viewBox="0 0 574.99622 772.08954"
   version="1.1"
   id="svg3"
   sodipodi:docname="parry.svg"
   inkscape:version="1.4.4 (dcaf3e7d9e, 2026-05-05)"
   xmlns:inkscape="http://www.inkscape.org/namespaces/inkscape"
   xmlns:sodipodi="http://sodipodi.sourceforge.net/DTD/sodipodi-0.dtd"
   xmlns="http://www.w3.org/2000/svg"
   xmlns:svg="http://www.w3.org/2000/svg">
  <defs
     id="defs3" />
  <sodipodi:namedview
     id="namedview3"
     pagecolor="#505050"
     bordercolor="#eeeeee"
     borderopacity="1"
     inkscape:showpageshadow="0"
     inkscape:pageopacity="0"
     inkscape:pagecheckerboard="0"
     inkscape:deskcolor="#505050"
     inkscape:zoom="0.48330295"
     inkscape:cx="333.12439"
     inkscape:cy="716.94162"
     inkscape:window-width="1357"
     inkscape:window-height="1102"
     inkscape:window-x="0"
     inkscape:window-y="0"
     inkscape:window-maximized="1"
     inkscape:current-layer="g3">
    <inkscape:page
       x="0"
       y="0"
       width="574.99622"
       height="772.08954"
       id="page2"
       margin="0"
       bleed="0" />
  </sodipodi:namedview>
  <g
     id="g3"
     transform="translate(-128.50188,-237.95526)">
    <path
       id="path3-5-5"
       style="display:inline;fill:#263845;fill-opacity:1"
       d="m 202.51137,237.96551 c -11.26959,0.13296 -21.78531,7.99021 -25.6599,18.48172 -2.09924,5.68157 -1.94159,11.83888 -2.06671,17.80338 0.0292,7.23391 0.22922,14.4819 1.02543,21.67584 1.0538,8.14224 3.51939,16.06831 7.03285,23.47896 3.13275,7.05364 6.45704,14.04254 10.39929,20.68424 5.633,9.20773 12.84791,17.46232 21.31786,24.16297 -9.82705,11.72293 -18.35757,24.5473 -25.17222,38.24913 -8.96437,17.91262 -15.27424,37.10747 -19.18715,56.7372 -1.45109,7.72458 -2.07104,15.59506 -1.9158,23.45156 -0.005,8.47959 -0.0142,16.96581 0.39536,25.43676 0.61148,10.04372 2.43528,19.98325 5.01653,29.69957 5.93093,22.87833 16.06859,44.62989 29.56836,64.01758 -4.09698,4.23127 -7.62918,8.97796 -10.89618,13.86776 -5.58086,8.64844 -9.48469,18.35114 -11.56961,28.42571 -2.88837,12.48995 -5.12508,25.11766 -7.60414,37.69171 -11.76557,61.31803 -23.61328,122.62052 -35.31343,183.95096 -2.76225,14.5823 -5.56414,29.1569 -8.20909,43.7604 -1.06275,6.2022 -1.90464,12.6861 -0.1908,18.8554 1.89071,7.1391 6.59742,13.5589 13.0634,17.1996 6.8463,4.0476 15.16497,5.1226 22.94499,3.8497 9.6229,-1.2322 19.16421,-3.0808 28.58326,-5.3959 16.44602,-4.1975 32.32619,-10.4419 47.49238,-18.0315 -5.69446,7.6715 -9.22476,16.8785 -10.3142,26.3591 -1.31775,10.511 0.18025,21.5514 5.28728,30.9192 5.28195,9.6972 14.34278,17.19594 24.77788,20.75714 7.43363,2.5088 15.48987,3.5497 23.26332,2.2038 1.82025,-0.3108 3.62139,-0.8155 5.35682,-1.4013 9.45926,5.1805 20.93378,6.5944 31.34618,3.7316 10.33975,-2.6518 19.58026,-8.91794 26.37452,-17.09104 1.40814,-1.0588 3.28253,-1.0105 4.95379,-1.2376 1.20868,-0.1004 2.42229,-0.133 3.6341,-0.087 4.64675,4.5401 8.99752,9.565 14.72947,12.79054 13.16843,8.0174 30.78599,8.0226 43.92044,-0.075 2.36622,-1.4043 4.59506,-3.03684 6.66845,-4.84474 7.56294,6.20634 16.99317,10.42844 26.84542,10.85104 7.37584,0.372 14.84389,-1.2883 21.33468,-4.8224 6.60748,-3.4805 12.1998,-8.56194 17.28865,-13.96424 1.81591,0 3.63607,0.075 5.44727,0.2305 0.41485,0.038 1.19427,0.1189 1.7408,0.2218 1.31608,0.1945 1.9054,1.5263 2.7963,2.3466 7.1024,7.67454 16.27373,13.69394 26.55682,15.99924 9.72582,2.1685 20.21145,0.8651 29.05451,-3.7512 5.0644,1.8194 10.53439,2.1 15.85855,1.6821 9.2629,-0.5211 18.5135,-3.6944 25.6546,-9.71694 8.54311,-6.804 14.86686,-16.6302 16.61636,-27.489 1.44198,-8.1531 1.08583,-16.5914 -0.74077,-24.6533 -2.19674,-8.9681 -6.97945,-17.2005 -13.33894,-23.8586 -6.49407,-6.9748 -14.83456,-12.3994 -24.1437,-14.6873 -8.06431,-2.1477 -16.3102,-3.5619 -24.58383,-4.6129 -1.52855,-0.1711 -3.05888,-0.3301 -4.59375,-0.4317 7.90162,-5.5651 15.3788,-12.1042 20.42969,-20.4472 0.22878,-0.4613 0.44976,-0.9241 1.05585,-0.7945 6.2449,-0.614 12.17983,-3.3591 16.92402,-7.4292 4.44978,-3.6774 8.29117,-8.0091 12.35741,-12.09 20.16841,-21.0923 36.48436,-45.7554 48.63066,-72.2637 10.97672,-23.70549 18.75939,-48.88103 23.1263,-74.63633 1.51927,-8.65444 2.49301,-17.40273 2.88787,-26.18104 0.50369,-10.13345 0.70042,-20.28359 0.62165,-30.42934 -0.14247,-9.12763 -0.98186,-18.28199 -2.60633,-27.24172 -1.00292,-6.24894 -2.21581,-12.67124 -5.60485,-18.12757 11.03823,-14.56431 20.52779,-30.34048 27.851,-47.0943 6.3423,-14.84052 10.75496,-30.514 13.02367,-46.49396 1.98013,-14.96939 1.55316,-30.11995 0.89048,-45.16477 -0.3075,-6.49089 -1.00306,-12.9753 -2.40769,-19.32599 -2.08116,-9.92677 -5.1002,-19.6315 -8.40434,-29.212 -7.28125,-20.36397 -17.7867,-39.68013 -31.75508,-56.24331 -0.78342,-0.95908 -1.61016,-1.92669 -2.38359,-2.86606 9.07436,-6.85594 16.54947,-15.68813 22.3107,-25.46542 5.84261,-9.76428 10.40143,-20.26355 13.99649,-31.04732 4.01568,-12.48169 5.64208,-25.7889 4.22227,-38.84795 -0.55002,-5.30787 -1.41286,-10.68336 -3.61344,-15.58462 -5.02384,-10.49894 -16.94321,-17.26279 -28.54087,-15.99935 -9.86061,0.89925 -18.87918,7.24355 -23.4884,15.94254 -1.25634,2.23094 -2.59806,4.47932 -4.58277,6.14596 -5.45784,5.39205 -11.86184,9.795 -18.76297,13.13155 -0.34915,0.16654 -1.08766,0.50866 -1.58586,0.74241 -0.55795,0.24532 -1.34614,0.59129 -1.75278,0.77008 -9.03684,3.78269 -18.5554,6.2783 -28.13053,8.26481 -3.01817,0.61651 -6.19514,1.17945 -9.14215,1.67192 -4.13548,0.66802 -8.25238,1.26512 -12.44868,1.79441 -4.0645,0.51586 -8.03381,0.95597 -12.15679,1.31496 -4.01584,0.34261 -7.98568,0.60165 -12.05505,0.73348 -3.83925,0.11107 -7.85868,0.16749 -11.77503,0.0966 -1.81802,-0.0712 -3.65854,-0.14511 -5.38813,-0.76481 -4.57726,-1.37657 -9.24457,-2.414 -13.87867,-3.57459 -15.36971,-3.71786 -30.97052,-6.72403 -46.77663,-7.71643 -17.73249,-1.26208 -35.54793,-0.97176 -53.27878,0.16199 -16.94944,1.18725 -33.80006,3.76186 -50.33113,7.6915 -6.45207,1.41677 -12.84217,3.2138 -19.40705,4.04224 -5.98351,0.46993 -11.99289,0.0917 -17.97423,-0.23236 -9.94403,-0.68087 -19.9649,-2.08842 -29.82671,-3.86535 -11.13504,-2.05289 -22.18844,-4.67604 -32.91738,-8.31648 -2.14434,-0.7504 -4.33259,-1.59483 -6.27778,-2.43945 -6.8275,-2.93054 -13.10443,-7.09756 -18.5612,-12.1307 -2.63193,-2.41163 -4.85331,-5.23585 -6.70681,-8.28077 -2.42587,-3.75519 -5.26542,-7.33441 -8.96101,-9.91604 -5.0871,-3.70876 -11.36912,-5.87584 -17.69105,-5.70367 z m 377.49609,140.68945 c 0.72738,-0.0873 0.71005,1.04897 0.0508,1.0625 -0.48518,0.11236 -1.2959,-0.58884 -0.66016,-0.95508 0.19122,-0.0857 0.4,-0.12726 0.60938,-0.10742 z M 443.95863,590.72723 c -0.23566,-0.0675 -0.17455,-0.27141 0,0 z m -21.68555,348.54293 c -0.16494,0.6757 -1.33074,0.7891 -1.37304,0.01 0.25537,-0.3583 0.97532,0.039 1.37304,-0.01 z" />
    <path
       d="m 302.39,984.1 c -4.54,-2.77 -7.4,-7.36 -8.06,-12.93 -1.24,-10.47 4.42,-17.33 20.42,-24.76 7.64,-3.55 11.17,-5.93 16.72,-11.3 8.67,-8.39 11.59,-9.46 24.46,-8.94 8.45,0.34 10.57,0.8 16.15,3.55 6.35,3.13 20.47,13.78 28.65,21.61 9.51,9.1 10.88,20.16 3.46,28.01 -3.62,3.82 -7.38,5.66 -11.58,5.66 -5.75,0 -8.81,-1.73 -15.11,-8.55 -7.96,-8.62 -13.94,-10.9 -26.78,-10.19 -11.09,0.62 -19.57,4.41 -25.19,11.27 -6.57,8.02 -16.25,10.77 -23.14,6.57 z m 221.85,-0.31 c -2.34,-1.19 -6.05,-4.31 -8.24,-6.91 -5.7,-6.76 -13.06,-10.02 -24.04,-10.65 -13.14,-0.75 -18.87,1.24 -26.46,9.2 -6.93,7.26 -10.86,9.57 -16.25,9.57 -4.3,0 -10.55,-3.54 -13.68,-7.76 -2.43,-3.26 -3.21,-11.76 -1.56,-16.78 2.61,-7.9 27.06,-27.56 39.92,-32.1 8.01,-2.83 22,-3.25 27.76,-0.85 1.99,0.84 6.59,4.59 10.22,8.35 5.49,5.69 7.78,7.28 13.78,9.55 7.24,2.74 14.29,7.17 17.51,11.01 5.49,6.55 6.11,16.87 1.37,23.07 -5.14,6.74 -12.51,8.3 -20.33,4.3 z m -254.58,-2.25 c -8.24,-2.94 -12.32,-10.3 -11.39,-20.56 0.9,-9.93 5.65,-17.36 13.76,-21.48 6.39,-3.26 37.84,-9.01 33.89,-6.2 -0.23,0.16 -4.13,2.69 -8.66,5.62 -9.24,5.97 -14.55,11.31 -17.34,17.44 -2.39,5.28 -2.61,17.41 -0.38,21.72 0.85,1.64 1.27,3.42 0.94,3.95 -0.85,1.37 -6.29,1.13 -10.82,-0.49 z M 561,982.52 c 0,-0.26 0.73,-2.31 1.63,-4.55 2.37,-5.93 1.48,-16.91 -1.92,-23.58 -3.12,-6.13 -10.28,-12.8 -18.13,-16.89 -3.17,-1.65 -5.97,-3.34 -6.23,-3.75 -1.39,-2.22 26.81,2.26 32.43,5.16 4.7,2.42 9.4,7.39 12.11,12.8 2.5,4.99 2.88,15.56 0.73,20.57 -1.66,3.89 -6.1,8.21 -9.94,9.66 C 568.87,983 561,983.43 561,982.52 Z M 155.88,925.25 c -0.33,-2.2 0.15,-4.91 10.57,-59.25 10.14,-52.93 16.58,-86.38 22.02,-114.5 2.98,-15.4 7.04,-36.55 9.02,-47 9.84,-51.95 10.83,-56.3 14.49,-63.89 3.52,-7.29 11.71,-17.61 13.98,-17.61 0.89,0 3.85,2.29 6.58,5.09 6.38,6.55 23.02,19.95 31.8,25.61 19.12,12.32 39.97,22.02 66.49,30.96 26.25,8.84 25.17,7.78 25.17,24.81 -0.02,38.47 -13.56,81.58 -36.38,115.86 -14.5,21.77 -30.93,39.37 -51.62,55.28 -21.3,16.38 -51,31.66 -74.75,38.46 -1.79,0.51 -4.94,1.4 -7,1.98 -5.51,1.55 -24.31,4.93 -27.5,4.94 -1.51,0 -2.8,-0.33 -2.87,-0.74 z m 234.97,-3 c -1.39,-1.51 -3.54,-4.43 -4.76,-6.48 -4.65,-7.78 -11.23,-9.77 -32.33,-9.77 -19.94,0 -25.38,1.89 -30.85,10.71 -4.19,6.74 -4.51,6.78 -15.37,1.99 -12.46,-5.5 -30.04,-16.85 -30.04,-19.4 0,-0.62 3.6,-3.95 8,-7.42 26.35,-20.75 51.92,-53.48 67.68,-86.61 13.67,-28.75 22.84,-67.57 22.81,-96.55 -0.02,-17.69 -3.48,-26.84 -12.25,-32.39 -2.33,-1.48 -10.09,-4.57 -17.24,-6.89 -49.81,-16.1 -81.12,-33.93 -105.01,-59.81 -22.06,-23.89 -36.88,-52.25 -43.17,-82.61 -2.25,-10.89 -2.6,-15.13 -2.69,-32.52 -0.09,-18.62 0.1,-20.83 2.72,-32 7.77,-33.1 20.97,-58.81 42.35,-82.43 l 4.92,-5.43 8.44,2.57 c 4.64,1.41 11.91,3.36 16.16,4.32 4.25,0.97 7.52,2.09 7.26,2.5 -0.25,0.4 -3.79,2.32 -7.86,4.25 -31.94,15.17 -55.69,47.53 -62.2,84.72 -2.12,12.12 -1.45,32.61 1.48,45.11 4.41,18.84 16.27,39.64 31.37,55.02 30.64,31.22 75.22,43.74 116.73,32.78 20.78,-5.49 36.74,-14.48 53.64,-30.21 6.19,-5.77 6.24,-5.79 7.45,-3.5 0.68,1.26 2.54,4.73 4.14,7.71 1.61,2.97 6.98,13.5 11.95,23.39 6.65,13.25 9.28,17.62 9.98,16.59 3.71,-5.42 18.84,-37.99 18.84,-40.56 0,-2.89 2.35,-2.04 8.71,3.13 7.66,6.24 22.04,14.02 34.2,18.51 31.44,11.59 64.01,9.63 94.69,-5.72 39.06,-19.53 63.8,-60.01 63.73,-104.25 -0.04,-19.94 -3.19,-33.54 -11.98,-51.66 -5.3,-10.93 -11.91,-20.06 -22.23,-30.68 -8.7,-8.95 -16.06,-14.37 -27.57,-20.32 -4.94,-2.56 -7.47,-4.36 -6.55,-4.68 2.85,-0.98 28.24,-7.66 29.12,-7.66 0.94,0 4.24,3.55 13.03,14 15.73,18.72 26.5,41.13 33.53,69.76 2.23,9.08 2.71,13.62 3.09,29.4 0.58,24.54 -1.09,36.62 -7.99,57.84 -6.65,20.45 -22.77,47 -39.53,65.1 -6.24,6.74 -25.36,23.13 -33.25,28.5 -14.17,9.65 -17.08,11.44 -25.5,15.73 -12.28,6.25 -20.29,9.72 -31.5,13.68 -12.66,4.47 -13.74,5.26 -15.47,11.36 -1.9,6.67 -4.53,36.24 -4.52,50.76 0.02,22.18 3.16,53.33 7.56,74.87 2.53,12.41 6.18,25.64 11.6,42.07 3.41,10.35 4.93,16.41 4.51,18.06 -2.81,11.21 -29.12,27.32 -69.68,42.66 -22.19,8.39 -54.47,15.21 -72.04,15.21 -4.81,0 -5.93,-0.38 -8.11,-2.75 z m 169.49,-66.47 c -3.51,-4.67 -13,-36.23 -17.32,-57.62 -5.32,-26.3 -7.33,-62.77 -5.07,-91.86 0.68,-8.69 1.35,-15.92 1.5,-16.08 0.15,-0.15 5.58,-2.29 12.08,-4.75 28.03,-10.64 56.71,-28.84 77.69,-49.3 3.7,-3.61 7.03,-6.25 7.41,-5.87 0.77,0.77 1.78,6.24 3.46,18.7 1.47,10.92 0.58,46.36 -1.47,58.5 -4.24,25.16 -8.49,40.63 -16.88,61.5 -11.79,29.33 -28.41,55.45 -48.63,76.45 -10.49,10.88 -11.65,11.83 -12.77,10.33 z M 314.5,589.99 c -3.3,-0.46 -7.8,-1.3 -10,-1.86 -2.2,-0.56 -5.58,-1.42 -7.5,-1.92 -11.62,-2.99 -29.39,-13.74 -40.87,-24.71 -19.98,-19.09 -30.37,-43.04 -30.35,-70 0.02,-20.41 4.73,-36.42 15.59,-53 15.21,-23.2 37.79,-37.49 65.71,-41.57 10.78,-1.58 26.74,-0.69 33.92,1.89 15.71,5.64 27.11,12.44 37.66,22.47 10.9,10.34 18.32,20.82 26.19,36.95 7.97,16.35 11.61,29.33 13.57,48.48 l 1.21,11.78 -3.89,4.31 c -5.33,5.9 -6.74,9.8 -6.74,18.62 v 7.5 l -6.38,7.09 c -10.72,11.9 -21.25,19.6 -35.12,25.68 -15.03,6.59 -38.65,10.28 -53,8.29 z m 6.5,-28.03 c 0,-0.58 -1.71,-3.39 -3.81,-6.25 -8.41,-11.51 -15.46,-28.05 -18.21,-42.71 -3.87,-20.68 -1.44,-44.43 6.57,-64.38 2.66,-6.61 13.77,-24.76 15.58,-25.45 0.48,-0.19 0.87,-0.75 0.87,-1.25 0,-0.51 -3.76,-0.92 -8.36,-0.92 h -8.37 l -4.42,4.75 c -17.64,18.94 -26.86,51.74 -22.76,80.96 1.17,8.28 6.53,25.65 10.06,32.6 3.13,6.15 9.37,15.1 13.73,19.68 3.8,4 3.83,4.01 11.47,4.01 4.64,0 7.65,-0.41 7.65,-1.04 z m 48.52,-31.7 c 4.46,-2.29 12.45,-10.34 14.75,-14.85 3.11,-6.1 6.81,-19.1 7.36,-25.86 1.03,-12.61 -3.79,-27.43 -11.72,-36.03 -6.96,-7.55 -20.68,-14.52 -28.59,-14.52 -3.35,0 -3.81,0.57 -2.73,3.38 0.42,1.09 1.42,1.37 3.44,0.96 4.18,-0.83 12.63,1.5 16.14,4.46 3.58,3.01 6.83,9.98 6.83,14.63 0,4.45 -3.96,11.6 -7.9,14.27 -3.89,2.64 -10.4,3.76 -16.14,2.79 -8.66,-1.46 -15.96,-11.84 -14.55,-20.68 0.37,-2.31 1.16,-4.8 1.76,-5.51 2.06,-2.49 -0.5,-1.27 -4.88,2.32 -5.72,4.69 -8.63,9.25 -11.4,17.88 -2.82,8.75 -3.07,23.15 -0.57,31.62 3.26,11.03 12.2,20.79 23.31,25.48 4.91,2.07 7.1,2.41 13.37,2.1 5.02,-0.25 8.83,-1.05 11.52,-2.44 z M 533,588.35 c -20.65,-3.11 -44.28,-14.7 -57.16,-28.03 l -4.66,-4.82 2.13,-8.2 2.14,-8.2 -1.97,-5.8 c -1.89,-5.56 -7.99,-13.12 -12.76,-15.8 -3.91,-2.2 1.69,-33.54 9.34,-52.27 7.21,-17.66 15.38,-29.64 29.31,-43 10.52,-10.09 16.94,-14.32 32.12,-21.18 l 11.69,-5.29 12.16,0.53 c 14.67,0.63 24.25,2.99 37.01,9.11 9.44,4.53 22.4,14.14 28.59,21.18 5.42,6.18 13.43,19.27 16.78,27.42 11.22,27.31 9.26,58.15 -5.4,85 -13.73,25.13 -41.2,44.21 -70.53,48.96 -5.96,0.97 -23.39,1.2 -28.79,0.39 z m 36.76,-30.1 c 11.25,-13.51 17.83,-26.53 21.29,-42.07 7.44,-33.4 -0.75,-68.82 -20.9,-90.43 L 565.73,421 h -8.45 -8.45 l 2.93,3.75 c 10.38,13.29 16.65,27.07 20.37,44.75 1.66,7.91 1.67,35.29 0.02,43 -3.79,17.65 -7.74,27.37 -16.77,41.28 -2.96,4.56 -5.38,8.5 -5.38,8.75 0,0.26 3.56,0.47 7.91,0.47 h 7.9 z m -39.11,-28.6 c 12.47,-6.38 20.18,-20 21.07,-37.21 0.81,-15.53 -2.48,-26.52 -10.55,-35.26 -4.88,-5.28 -6.24,-5.39 -5.09,-0.43 3.07,13.26 -9.04,25.92 -21.82,22.8 -4.48,-1.1 -10.27,-5.65 -12.34,-9.7 -2.27,-4.46 -2.48,-12.25 -0.42,-15.85 3.29,-5.75 -0.05,-5.44 -6.52,0.62 -9.31,8.7 -13.6,21.16 -12.72,36.88 1.07,19.11 11.03,34.54 25.74,39.9 6.28,2.28 16.28,1.51 22.65,-1.75 z m -87.56,51.52 c -0.6,-1.12 -1.1,-2.63 -1.11,-3.35 0,-0.73 -2.08,-5.82 -4.6,-11.32 C 430.27,550.99 427,542.9 427,540.83 c 0,-11.8 25.85,-13.6 30.64,-2.14 1.53,3.65 1.29,8.19 -0.81,15.31 -1.27,4.31 -10.86,27.18 -11.89,28.36 -0.42,0.47 -1.25,-0.06 -1.85,-1.19 z m -6.04,-85.42 c -5.64,-32.12 -19.86,-62.09 -38.94,-82.08 -5.88,-6.17 -18.02,-16.24 -25.11,-20.84 -11.64,-7.55 -36.06,-17.39 -49,-19.75 -3.02,-0.55 -10.67,-2.09 -17,-3.43 -6.33,-1.34 -16.23,-3.41 -22,-4.61 -19.16,-3.97 -37.06,-9.12 -44.5,-12.79 -10.88,-5.37 -21.1,-16.01 -27.04,-28.15 -10.09,-20.63 -10.76,-22.97 -11.24,-39.35 -0.24,-8.11 -0.05,-14.75 0.42,-14.74 0.47,0 1.83,1.69 3.01,3.75 5.73,9.95 18.79,21.1 32.98,28.14 20.51,10.17 64.36,19.04 94.87,19.19 10.47,0.05 13.85,-0.4 26.5,-3.49 7.98,-1.95 19.67,-4.42 26,-5.5 29.69,-5.05 72.43,-5.35 97.18,-0.69 14.12,2.66 32.03,6.93 36.67,8.76 3.32,1.3 24.28,1.19 38.15,-0.2 33.79,-3.39 57.81,-9.25 76,-18.54 13.92,-7.1 28.36,-19.94 32.26,-28.68 1.11,-2.49 2.7,-3.28 3.01,-1.5 2.4,13.98 1.04,25.58 -4.69,39.87 -12.11,30.2 -25.14,41.94 -53.58,48.27 -55.4,12.33 -64.83,14.77 -80.06,20.71 -19.5,7.6 -33.31,16.48 -47.07,30.29 -22.06,22.13 -36.82,51.16 -41.63,81.86 -0.98,6.25 -2.15,10.75 -2.8,10.75 -0.62,0 -1.69,-3.26 -2.39,-7.25 z"
       fill="#6bacb0"
       id="path3"
       style="display:inline" />
  </g>
</svg>
